<?xml version="1.0" standalone="no"?>
<svg version="1.0" xmlns="http://www.w3.org/2000/svg"
 width="150.000000pt" height="150.000000pt" viewBox="0 0 150.000000 150.000000"
 preserveAspectRatio="xMidYMid meet">

<g transform="translate(0.000000,150.000000) scale(0.100000,-0.100000)"
fill="#fd9800" stroke="none">
<path d="M630 1485 c-327 -55 -573 -312 -620 -647 -30 -213 54 -455 214 -614
159 -160 401 -244 614 -214 348 49 603 304 652 653 30 212 -54 454 -214 613
-112 112 -271 191 -430 213 -93 13 -119 13 -216 -4z m323 -109 c112 -37 182
-81 262 -161 79 -79 123 -149 162 -262 24 -69 27 -93 27 -203 0 -110 -3 -134
-27 -203 -39 -113 -83 -183 -162 -262 -79 -79 -149 -123 -262 -162 -69 -24
-93 -27 -203 -27 -110 0 -134 3 -203 27 -113 39 -183 83 -262 162 -79 79 -123
149 -162 262 -24 69 -27 93 -27 203 0 110 3 134 27 203 39 113 83 183 162 262
95 95 193 149 330 181 92 21 242 12 338 -20z"/>
<path d="M710 972 l0 -237 145 -145 145 -145 27 28 28 27 -133 133 -132 132 0
223 0 222 -40 0 -40 0 0 -238z"/>
</g>
</svg>
