<?xml version="1.0" standalone="no"?>
<svg version="1.0" xmlns="http://www.w3.org/2000/svg"
 width="150.000000pt" height="150.000000pt" viewBox="0 0 150.000000 150.000000"
 preserveAspectRatio="xMidYMid meet">

<g transform="translate(0.000000,150.000000) scale(0.100000,-0.100000)"
fill="#fd9800" stroke="none">
<path d="M643 1479 c-83 -27 -156 -93 -194 -174 -52 -109 -34 -242 43 -330 21
-24 38 -46 38 -49 0 -3 -24 -18 -52 -32 -75 -38 -188 -156 -227 -237 -17 -35
-31 -71 -31 -79 0 -9 20 -19 51 -27 27 -7 51 -12 52 -10 1 2 14 29 28 59 51
107 171 212 269 235 112 27 130 28 202 10 142 -33 257 -121 318 -242 17 -35
32 -63 33 -63 30 3 93 31 95 43 6 29 -61 140 -125 208 -37 39 -87 79 -123 98
-33 18 -60 35 -60 38 0 3 16 27 35 53 46 63 65 119 65 194 0 95 -24 151 -94
222 -52 52 -71 65 -130 83 -84 26 -113 26 -193 0z m205 -128 c66 -42 97 -98
97 -176 0 -213 -275 -290 -382 -107 -34 58 -38 146 -9 201 60 112 190 149 294
82z"/>
<path d="M198 376 c-37 -74 -37 -75 -85 -82 -47 -7 -73 -10 -103 -13 -8 0 9
-25 44 -60 l59 -60 -12 -76 c-7 -42 -10 -79 -7 -82 3 -3 37 13 77 36 40 23 75
38 78 33 8 -12 130 -76 135 -71 2 2 -3 39 -11 81 l-14 78 61 56 c33 31 59 58
58 59 -3 3 -22 6 -120 20 l-46 7 -34 74 c-18 41 -35 74 -38 74 -3 0 -22 -33
-42 -74z"/>
<path d="M705 378 c-38 -77 -38 -77 -84 -84 -51 -8 -77 -11 -106 -13 -15 -1
-7 -14 43 -64 l62 -62 -14 -75 c-8 -41 -12 -77 -10 -80 3 -2 37 13 75 34 l70
38 70 -37 c39 -20 73 -34 76 -31 3 3 0 40 -7 82 l-12 77 58 58 c47 47 54 59
39 60 -133 8 -141 12 -184 97 l-39 77 -37 -77z"/>
<path d="M1209 378 c-37 -77 -47 -84 -136 -94 -32 -3 -59 -7 -61 -9 -2 -1 24
-28 56 -59 l59 -56 -8 -48 c-5 -26 -11 -62 -14 -79 -3 -18 -2 -33 4 -33 5 0
38 16 73 36 l63 36 72 -38 c40 -20 75 -36 77 -33 2 2 -2 38 -9 79 l-12 75 61
62 60 63 -29 2 c-17 0 -34 2 -40 3 -110 17 -99 10 -136 86 -18 39 -36 72 -40
74 -3 2 -21 -28 -40 -67z"/>
</g>
</svg>
