<?xml version="1.0" standalone="no"?>
<svg version="1.0" xmlns="http://www.w3.org/2000/svg"
 width="112.000000pt" height="112.000000pt" viewBox="0 0 512.000000 512.000000"
 preserveAspectRatio="xMidYMid meet">

<g transform="translate(0.000000,512.000000) scale(0.100000,-0.100000)"
fill="#9dedff" stroke="none">
<path d="M2150 4954 c-14 -2 -52 -9 -85 -15 -328 -56 -640 -291 -790 -594 -86
-175 -119 -319 -118 -515 1 -185 34 -325 118 -495 54 -109 110 -185 212 -288
119 -120 257 -206 423 -264 133 -47 208 -58 380 -57 132 1 169 5 252 27 401
106 709 409 815 802 24 92 27 116 27 285 0 169 -3 193 -27 285 -72 265 -243
501 -477 655 -174 114 -355 169 -570 175 -74 2 -146 2 -160 -1z"/>
<path d="M4224 2955 c-75 -16 -171 -63 -239 -115 -27 -21 -359 -349 -736 -727
-623 -626 -689 -694 -721 -758 -53 -102 -63 -148 -108 -485 -46 -338 -45 -353
11 -409 53 -54 75 -55 364 -15 422 57 447 62 551 126 35 21 301 280 772 752
691 693 721 724 756 796 114 236 73 493 -109 675 -143 144 -344 203 -541 160z
m196 -315 c145 -40 227 -190 185 -336 -16 -59 -19 -61 -713 -756 -558 -559
-705 -701 -742 -717 -42 -18 -408 -77 -417 -67 -8 8 48 380 63 415 17 41 1379
1412 1429 1438 62 33 130 41 195 23z"/>
<path d="M1985 2414 c-568 -46 -1067 -180 -1538 -416 -157 -78 -213 -125 -255
-216 l-27 -57 0 -480 0 -480 31 -65 c17 -36 51 -85 75 -109 24 -24 73 -58 109
-75 l65 -31 865 -3 866 -3 -4 63 c-3 59 63 590 88 705 23 104 78 222 143 308
17 22 192 202 389 401 l359 361 -78 16 c-263 56 -474 78 -778 82 -143 1 -282
1 -310 -1z"/>
<path d="M3945 850 l-370 -371 230 3 230 3 65 31 c83 39 145 101 184 184 31
65 31 66 34 255 2 105 2 207 0 228 l-3 37 -370 -370z"/>
</g>
</svg>
