<?xml version="1.0" standalone="no"?>
<svg version="1.0" xmlns="http://www.w3.org/2000/svg"
 width="150.000000pt" height="150.000000pt" viewBox="0 0 150.000000 150.000000"
 preserveAspectRatio="xMidYMid meet">

<g transform="translate(0.000000,150.000000) scale(0.100000,-0.100000)"
fill="#fd9800" stroke="none">
<path d="M430 1205 l0 -295 38 23 c20 13 58 32 85 42 l47 18 0 253 0 254 -85
0 -85 0 0 -295z"/>
<path d="M700 1255 l0 -245 50 0 50 0 0 245 0 245 -50 0 -50 0 0 -245z"/>
<path d="M900 1246 l0 -253 48 -18 c26 -9 64 -28 85 -41 l37 -24 0 295 0 295
-85 0 -85 0 0 -254z"/>
<path d="M665 909 c-235 -48 -405 -288 -365 -516 34 -197 186 -349 383 -383
289 -51 568 227 518 516 -38 218 -206 372 -425 388 -33 3 -83 0 -111 -5z"/>
</g>
</svg>
