<?xml version="1.0" standalone="no"?>
<!DOCTYPE svg PUBLIC "-//W3C//DTD SVG 20010904//EN"
 "http://www.w3.org/TR/2001/REC-SVG-20010904/DTD/svg10.dtd">
<svg version="1.0" xmlns="http://www.w3.org/2000/svg"
 width="112.000000pt" height="112.000000pt" viewBox="0 0 512.000000 512.000000"
 preserveAspectRatio="xMidYMid meet">

<g transform="translate(0.000000,512.000000) scale(0.100000,-0.100000)"
fill="#fd9800" stroke="none">
<path d="M852 3520 l-852 -960 852 -960 853 -959 1420 -1 c1586 0 1491 -4
1644 72 166 82 297 251 336 434 22 104 22 2724 0 2828 -39 183 -170 352 -336
434 -153 76 -58 72 -1644 72 l-1420 -1 -853 -959z m3741 498 c22 -14 51 -43
65 -65 l27 -38 0 -1355 0 -1355 -27 -38 c-14 -22 -43 -51 -65 -65 l-38 -27
-1330 -2 -1330 -3 -655 737 c-360 406 -655 744 -655 753 0 9 295 347 655 753
l655 737 1330 -3 1330 -2 38 -27z"/>
<path d="M2536 3368 c-58 -16 -129 -91 -145 -151 -13 -52 -7 -105 17 -152 8
-16 121 -137 250 -267 l236 -238 -236 -237 c-129 -131 -242 -251 -250 -268
-43 -86 -28 -176 42 -245 69 -70 159 -85 245 -42 17 8 137 121 268 250 l237
236 238 -236 c130 -129 251 -242 267 -250 86 -43 176 -28 245 42 70 69 85 159
42 245 -8 17 -121 137 -250 268 l-236 237 236 238 c129 130 242 251 250 267
43 86 28 176 -42 245 -69 70 -159 85 -245 42 -16 -8 -137 -121 -267 -250
l-238 -236 -237 236 c-131 129 -252 242 -268 251 -42 21 -113 28 -159 15z"/>
</g>
</svg>
