<?xml version="1.0" encoding="UTF-8"?>
<svg width="40px" height="36px" viewBox="0 0 40 36" version="1.1" xmlns="http://www.w3.org/2000/svg" xmlns:xlink="http://www.w3.org/1999/xlink">
    <title>Web Logo/webLogo</title>
    <defs>
        <path d="M36.0425532,11.1340019 C36.0425532,10.7096024 36.0425532,10.2851595 36.0400994,9.86071653 C36.0379561,9.50317444 36.0338007,9.14571913 36.0240028,8.78835059 C36.0028324,8.00944596 35.956511,7.22385993 35.8168472,6.45363245 C35.675215,5.67229822 35.4439145,4.94510942 35.0794237,4.23518816 C34.7211004,3.53741491 34.2530318,2.89890662 33.6945514,2.34534765 C33.1362021,1.79178868 32.4922962,1.32782132 31.788553,0.972622066 C31.0720814,0.61100172 30.3381572,0.381664569 29.5495572,0.24122485 C28.7729422,0.102911033 27.9807117,0.0570522801 27.195436,0.0360101844 C26.8348819,0.026335159 26.4743278,0.0222568971 26.1136863,0.0200442231 C25.6855529,0.0174410773 25.2574195,0.0176580061 24.8292862,0.0176580061 L19.85825,0 L16.1402957,0 L11.257222,0.0176580061 C10.8282576,0.0176580061 10.3992931,0.0174410773 9.9703287,0.0200442231 C9.60894354,0.0222568971 9.24773335,0.026335159 8.88647941,0.0360101844 C8.09936661,0.0570522801 7.3053428,0.102954419 6.52689065,0.241441779 C5.73724089,0.381838112 5.0022232,0.611088491 4.28478924,0.972448523 C3.57955892,1.32769116 2.93425328,1.79170191 2.37472302,2.34534765 C1.81528025,2.89886323 1.34633686,3.53724137 0.987357441,4.23488446 C0.621860662,4.94515281 0.390122758,5.67277546 0.248140644,6.45454355 C0.108345562,7.22446733 0.0620242259,8.00979305 0.0407225348,8.78835059 C0.0310121129,9.14576252 0.0268130116,9.50321783 0.0246259797,9.86071653 C0.0220015413,10.2852028 0,10.81247 0,11.236913 L0,16.0132518 L0,19.7405228 L0.0222202445,24.6183409 C0.0222202445,25.0433478 0.022045282,25.4683548 0.0246259797,25.8933617 C0.0268130116,26.2513811 0.0310121129,26.6093136 0.0407662754,26.9672028 C0.0620242259,27.7471053 0.108433044,28.5338194 0.248359347,29.3050881 C0.39029772,30.0874636 0.621991884,30.8156936 0.987182478,31.526526 C1.34620564,32.2252971 1.81523651,32.8646297 2.37472302,33.4189697 C2.93420954,33.9733096 3.57934022,34.4378843 4.28443932,34.7936042 C5.00231068,35.1557018 5.7376783,35.3853427 6.5278092,35.5259559 C7.30591143,35.6644867 8.0996728,35.7104322 8.88647941,35.7314743 C9.24773335,35.7411493 9.60898728,35.745271 9.97037244,35.7474402 C10.3993369,35.75 10.8282576,35.75 11.257222,35.75 L16.18443,35.75 L19.9116136,35.75 L24.8292862,35.75 C25.2574195,35.75 25.6855529,35.75 26.1136863,35.7474402 C26.4743278,35.745271 26.8348819,35.7411493 27.195436,35.7314743 C27.9810179,35.7103888 28.7735108,35.6643999 29.5504758,35.5257824 C30.3385946,35.3851691 31.0721688,35.155615 31.7882468,34.7937344 C32.4921212,34.4380579 33.1361584,33.9733963 33.6945514,33.4189697 C34.2529444,32.8647165 34.7209692,32.2254707 35.0792925,31.5268297 C35.444002,30.8156502 35.6753024,30.0870731 35.8170221,29.304177 C35.9565548,28.533212 36.0028324,27.7468016 36.0240466,26.9672028 C36.0338007,26.6092702 36.0379561,26.2513377 36.0400994,25.8933617 C36.0425532,25.4683548 36.0425532,25.0433478 36.0425532,24.6183409 C36.0425532,24.6183409 36.0425532,19.8266435 36.0425532,19.7405228 L36.0425532,16.0093471 C36.0425532,15.9457435 36.0425532,11.1340019 36.0425532,11.1340019" id="path-1"></path>
        <linearGradient x1="50%" y1="0%" x2="50%" y2="100%" id="linearGradient-3">
            <stop stop-color="#FFE000" offset="0%"></stop>
            <stop stop-color="#FFBC00" offset="51.0309473%"></stop>
            <stop stop-color="#FF9D00" offset="74.9351235%"></stop>
            <stop stop-color="#FF6A00" offset="100%"></stop>
        </linearGradient>
        <rect id="path-4" x="0" y="0" width="36.0425532" height="35.75"></rect>
        <path d="M41.0727639,-4.98938107 L41.0727639,40.7393811 L-5.0302107,40.7393811 L-5.0302107,-4.98938107 L41.0727639,-4.98938107 Z M19.85825,8.8817842e-16 L16.1402957,8.8817842e-16 L11.257222,0.0176580061 C10.8282576,0.0176580061 10.3992931,0.0174410773 9.9703287,0.0200442231 C9.60894354,0.0222568971 9.24773335,0.026335159 8.88647941,0.0360101844 C8.09936661,0.0570522801 7.3053428,0.102954419 6.52689065,0.241441779 C5.73724089,0.381838112 5.0022232,0.611088491 4.28478924,0.972448523 C3.57955892,1.32769116 2.93425328,1.79170191 2.37472302,2.34534765 C1.81528025,2.89886323 1.34633686,3.53724137 0.987357441,4.23488446 C0.621860662,4.94515281 0.390122758,5.67277546 0.248140644,6.45454355 C0.108345562,7.22446733 0.0620242259,8.00979305 0.0407225348,8.78835059 C0.0310121129,9.14576252 0.0268130116,9.50321783 0.0246259797,9.86071653 C0.0220015413,10.2852028 2.66453526e-15,10.81247 2.66453526e-15,11.236913 L2.66453526e-15,19.7405228 L0.0222202445,24.6183409 C0.0222202445,25.0433478 0.022045282,25.4683548 0.0246259797,25.8933617 C0.0268130116,26.2513811 0.0310121129,26.6093136 0.0407662754,26.9672028 C0.0620242259,27.7471053 0.108433044,28.5338194 0.248359347,29.3050881 C0.39029772,30.0874636 0.621991884,30.8156936 0.987182478,31.526526 C1.34620564,32.2252971 1.81523651,32.8646297 2.37472302,33.4189697 C2.93420954,33.9733096 3.57934022,34.4378843 4.28443932,34.7936042 C5.00231068,35.1557018 5.7376783,35.3853427 6.5278092,35.5259559 C7.30591143,35.6644867 8.0996728,35.7104322 8.88647941,35.7314743 C9.24773335,35.7411493 9.60898728,35.745271 9.97037244,35.7474402 L10.6137972,35.74968 L10.6137972,35.74968 L24.8292862,35.75 C25.2574195,35.75 25.6855529,35.75 26.1136863,35.7474402 C26.4743278,35.745271 26.8348819,35.7411493 27.195436,35.7314743 C27.9810179,35.7103888 28.7735108,35.6643999 29.5504758,35.5257824 C30.3385946,35.3851691 31.0721688,35.155615 31.7882468,34.7937344 C32.4921212,34.4380579 33.1361584,33.9733963 33.6945514,33.4189697 C34.2529444,32.8647165 34.7209692,32.2254707 35.0792925,31.5268297 C35.444002,30.8156502 35.6753024,30.0870731 35.8170221,29.304177 C35.9565548,28.533212 36.0028324,27.7468016 36.0240466,26.9672028 C36.0338007,26.6092702 36.0379561,26.2513377 36.0400994,25.8933617 L36.0422465,25.2558513 L36.0422465,25.2558513 L36.0425532,11.1340019 C36.0425532,10.7096024 36.0425532,10.2851595 36.0400994,9.86071653 C36.0379561,9.50317444 36.0338007,9.14571913 36.0240028,8.78835059 C36.0028324,8.00944596 35.956511,7.22385993 35.8168472,6.45363245 C35.675215,5.67229822 35.4439145,4.94510942 35.0794237,4.23518816 C34.7211004,3.53741491 34.2530318,2.89890662 33.6945514,2.34534765 C33.1362021,1.79178868 32.4922962,1.32782132 31.788553,0.972622066 C31.0720814,0.61100172 30.3381572,0.381664569 29.5495572,0.24122485 C28.7729422,0.102911033 27.9807117,0.0570522801 27.195436,0.0360101844 C26.8348819,0.026335159 26.4743278,0.0222568971 26.1136863,0.0200442231 C25.6855529,0.0174410773 25.2574195,0.0176580061 24.8292862,0.0176580061 L19.85825,8.8817842e-16 Z" id="path-6"></path>
        <filter x="-26.0%" y="-26.2%" width="152.1%" height="152.5%" filterUnits="objectBoundingBox" id="filter-7">
            <feOffset dx="0" dy="0" in="SourceAlpha" result="shadowOffsetOuter1"></feOffset>
            <feGaussianBlur stdDeviation="4" in="shadowOffsetOuter1" result="shadowBlurOuter1"></feGaussianBlur>
            <feComposite in="shadowBlurOuter1" in2="SourceAlpha" operator="out" result="shadowBlurOuter1"></feComposite>
            <feColorMatrix values="0 0 0 0 0.999901831   0 0 0 0 1   0 0 0 0 0.999879897  0 0 0 1 0" type="matrix" in="shadowBlurOuter1"></feColorMatrix>
        </filter>
        <radialGradient cx="45.2134997%" cy="34.7333123%" fx="45.2134997%" fy="34.7333123%" r="46.8928966%" gradientTransform="translate(0.452135,0.347333),scale(1.000000,0.754110),rotate(90.000000),translate(-0.452135,-0.347333)" id="radialGradient-8">
            <stop stop-color="#FFFFFF" offset="0%"></stop>
            <stop stop-color="#FFFFFF" stop-opacity="0.7" offset="72.3175534%"></stop>
            <stop stop-color="#FFFFFF" stop-opacity="0.35" offset="100%"></stop>
        </radialGradient>
        <path d="M19.7158102,37.9460571 L0.840911434,53.625 L-1.83319981,38.3335166 L17.2188206,33.2205879 C17.1044051,32.8119311 17.0092519,32.3936125 16.934556,31.9664759 C16.6978455,30.6128843 16.6842267,29.2716581 16.8670673,27.9811477 L-2.81582447,24.8327151 L-2.460499,11.3335088 L18.3775124,23.5319629 C19.2855164,21.9209906 20.5395255,20.5165261 22.0577701,19.4363174 L7.1706238,-1.8667169 L21.2747012,-1.34812 L26.1325766,17.5355903 C26.4506508,17.4527732 26.7743926,17.3818343 27.10341,17.3233382 C28.9349982,16.9976999 30.7437578,17.090788 32.4330906,17.5344028 L38.5588378,-5.90513393 L42.0764628,14.2098496 L37.3023642,20.0578259 C39.502043,21.9028427 41.0902724,24.5128798 41.6260384,27.5765736 C42.8283001,34.4515176 38.2755494,41.0074732 31.4571845,42.2197114 C31.0405045,42.293793 30.625006,42.3462035 30.2118263,42.377746 L30.2118263,38.4465263 C30.4016968,38.4256067 30.5921554,38.3982651 30.7829731,38.3643396 C35.4895982,37.527548 38.6323004,33.0020605 37.8023954,28.2563797 C36.9724904,23.5106989 32.4842465,20.3419184 27.7776214,21.17871 C23.0709963,22.0155015 19.9282941,26.5409891 20.7581991,31.2866699 C21.4815753,35.4231829 24.9843812,38.3616431 28.9885799,38.4937156 L28.9885799,42.4107584 C25.3542475,42.329398 21.9942838,40.6512168 19.7158102,37.9460571 Z" id="path-9"></path>
    </defs>
    <g id="Buttons-&amp;-Logo" stroke="none" stroke-width="1" fill="none" fill-rule="evenodd">
        <g transform="translate(-4.000000, -4.000000)">
            <g id="Artwork" transform="translate(4.158756, 4.125000)">
                <mask id="mask-2" fill="white">
                    <use xlink:href="#path-1"></use>
                </mask>
                <use id="Mask" fill="#FFFFFF" xlink:href="#path-1"></use>
                <g id="Group" mask="url(#mask-2)">
                    <g id="Icon">
                        <path d="M36.0425532,11.1340019 C36.0425532,10.7096024 36.0425532,10.2851595 36.0400994,9.86071653 C36.0379561,9.50317444 36.0338007,9.14571913 36.0240028,8.78835059 C36.0028324,8.00944596 35.956511,7.22385993 35.8168472,6.45363245 C35.675215,5.67229822 35.4439145,4.94510942 35.0794237,4.23518816 C34.7211004,3.53741491 34.2530318,2.89890662 33.6945514,2.34534765 C33.1362021,1.79178868 32.4922962,1.32782132 31.788553,0.972622066 C31.0720814,0.61100172 30.3381572,0.381664569 29.5495572,0.24122485 C28.7729422,0.102911033 27.9807117,0.0570522801 27.195436,0.0360101844 C26.8348819,0.026335159 26.4743278,0.0222568971 26.1136863,0.0200442231 C25.6855529,0.0174410773 25.2574195,0.0176580061 24.8292862,0.0176580061 L19.85825,0 L16.1402957,0 L11.257222,0.0176580061 C10.8282576,0.0176580061 10.3992931,0.0174410773 9.9703287,0.0200442231 C9.60894354,0.0222568971 9.24773335,0.026335159 8.88647941,0.0360101844 C8.09936661,0.0570522801 7.3053428,0.102954419 6.52689065,0.241441779 C5.73724089,0.381838112 5.0022232,0.611088491 4.28478924,0.972448523 C3.57955892,1.32769116 2.93425328,1.79170191 2.37472302,2.34534765 C1.81528025,2.89886323 1.34633686,3.53724137 0.987357441,4.23488446 C0.621860662,4.94515281 0.390122758,5.67277546 0.248140644,6.45454355 C0.108345562,7.22446733 0.0620242259,8.00979305 0.0407225348,8.78835059 C0.0310121129,9.14576252 0.0268130116,9.50321783 0.0246259797,9.86071653 C0.0220015413,10.2852028 0,10.81247 0,11.236913 L0,16.0132518 L0,19.7405228 L0.0222202445,24.6183409 C0.0222202445,25.0433478 0.022045282,25.4683548 0.0246259797,25.8933617 C0.0268130116,26.2513811 0.0310121129,26.6093136 0.0407662754,26.9672028 C0.0620242259,27.7471053 0.108433044,28.5338194 0.248359347,29.3050881 C0.39029772,30.0874636 0.621991884,30.8156936 0.987182478,31.526526 C1.34620564,32.2252971 1.81523651,32.8646297 2.37472302,33.4189697 C2.93420954,33.9733096 3.57934022,34.4378843 4.28443932,34.7936042 C5.00231068,35.1557018 5.7376783,35.3853427 6.5278092,35.5259559 C7.30591143,35.6644867 8.0996728,35.7104322 8.88647941,35.7314743 C9.24773335,35.7411493 9.60898728,35.745271 9.97037244,35.7474402 C10.3993369,35.75 10.8282576,35.75 11.257222,35.75 L16.18443,35.75 L19.9116136,35.75 L24.8292862,35.75 C25.2574195,35.75 25.6855529,35.75 26.1136863,35.7474402 C26.4743278,35.745271 26.8348819,35.7411493 27.195436,35.7314743 C27.9810179,35.7103888 28.7735108,35.6643999 29.5504758,35.5257824 C30.3385946,35.3851691 31.0721688,35.155615 31.7882468,34.7937344 C32.4921212,34.4380579 33.1361584,33.9733963 33.6945514,33.4189697 C34.2529444,32.8647165 34.7209692,32.2254707 35.0792925,31.5268297 C35.444002,30.8156502 35.6753024,30.0870731 35.8170221,29.304177 C35.9565548,28.533212 36.0028324,27.7468016 36.0240466,26.9672028 C36.0338007,26.6092702 36.0379561,26.2513377 36.0400994,25.8933617 C36.0425532,25.4683548 36.0425532,25.0433478 36.0425532,24.6183409 C36.0425532,24.6183409 36.0425532,19.8266435 36.0425532,19.7405228 L36.0425532,16.0093471 C36.0425532,15.9457435 36.0425532,11.1340019 36.0425532,11.1340019" id="Mask-(Temporary)"></path>
                        <mask id="mask-5" fill="white">
                            <use xlink:href="#path-4"></use>
                        </mask>
                        <use id="Background" fill="url(#linearGradient-3)" xlink:href="#path-4"></use>
                        <g id="Inner-Glow" opacity="0.75" style="mix-blend-mode: soft-light;" mask="url(#mask-5)">
                            <use fill="black" fill-opacity="1" filter="url(#filter-7)" xlink:href="#path-6"></use>
                            <use fill-opacity="0.546694" fill="#FFFFFF" fill-rule="evenodd" xlink:href="#path-6"></use>
                        </g>
                        <g id="Rays" mask="url(#mask-5)">
                            <use fill="url(#radialGradient-8)" xlink:href="#path-9"></use>
                            <use fill-opacity="0.1" fill="#FFFFFF" xlink:href="#path-9"></use>
                        </g>
                    </g>
                </g>
            </g>
        </g>
    </g>
</svg>