<?xml version="1.0" standalone="no"?>
<svg version="1.0" xmlns="http://www.w3.org/2000/svg"
 width="150.000000pt" height="150.000000pt" viewBox="0 0 150.000000 150.000000"
 preserveAspectRatio="xMidYMid meet">

<g transform="translate(0.000000,150.000000) scale(0.100000,-0.100000)"
fill="#fd9800" stroke="none">
<path d="M687 1484 c-125 -38 -187 -186 -128 -302 25 -49 56 -76 116 -103 l50
-22 -49 -13 c-129 -33 -226 -155 -226 -285 l0 -49 300 0 300 0 0 49 c0 97 -50
187 -138 245 -28 19 -70 37 -92 41 -38 6 -57 25 -25 25 22 0 75 28 103 54 119
107 68 314 -89 360 -62 19 -60 19 -122 0z m120 -85 c103 -50 104 -189 2 -242
-87 -46 -192 18 -192 117 0 56 28 101 78 126 50 25 59 25 112 -1z m41 -448
c56 -29 122 -110 122 -151 0 -7 -73 -10 -220 -10 -146 0 -220 4 -220 10 0 21
39 85 67 112 15 15 44 34 63 42 50 22 143 20 188 -3z"/>
<path d="M140 625 l-135 -135 138 -138 137 -137 0 73 0 72 170 0 170 0 0 -50
0 -50 -76 0 -77 0 49 -42 c26 -24 60 -54 74 -67 74 -68 153 -136 160 -136 7 0
94 74 198 170 29 27 61 55 70 62 14 10 4 12 -60 13 l-78 0 0 50 0 50 170 0
170 0 0 -72 0 -73 137 138 138 137 -138 137 -137 138 0 -78 0 -77 -470 0 -469
0 -3 75 -3 75 -135 -135z m610 -85 c369 0 549 3 552 10 2 6 20 -7 41 -28 l37
-38 -36 -34 c-24 -23 -38 -31 -41 -22 -4 9 -64 12 -255 12 l-249 0 2 -140 c2
-135 1 -141 -21 -160 -29 -25 -31 -25 -60 0 -22 19 -23 25 -21 160 l2 140
-249 0 c-191 0 -251 -3 -255 -12 -3 -9 -17 -1 -41 22 l-36 34 37 38 c21 21 39
34 41 28 3 -7 183 -10 552 -10z"/>
</g>
</svg>
