<?xml version="1.0" standalone="no"?>
<!DOCTYPE svg PUBLIC "-//W3C//DTD SVG 20010904//EN"
 "http://www.w3.org/TR/2001/REC-SVG-20010904/DTD/svg10.dtd">
<svg version="1.0" xmlns="http://www.w3.org/2000/svg"
 width="112.000000pt" height="112.000000pt" viewBox="0 0 512.000000 512.000000"
 preserveAspectRatio="xMidYMid meet">

<g transform="translate(0.000000,512.000000) scale(0.100000,-0.100000)"
fill="#9dedff" stroke="none">
<path d="M2295 4845 c-514 -68 -974 -293 -1335 -655 -364 -364 -592 -829 -661
-1350 -18 -139 -16 -439 6 -590 55 -393 205 -753 449 -1080 91 -122 314 -345
437 -437 330 -247 712 -401 1124 -454 150 -19 439 -14 601 10 1232 183 2094
1307 1949 2543 -79 673 -446 1269 -1020 1653 -284 190 -664 326 -1017 364
-129 14 -409 12 -533 -4z m569 -321 c333 -46 654 -181 931 -393 85 -64 256
-233 327 -320 229 -284 373 -619 424 -984 25 -172 15 -491 -20 -654 -116 -547
-438 -1008 -905 -1297 -113 -69 -171 -99 -305 -153 -808 -324 -1741 -75 -2288
612 -313 393 -467 917 -417 1421 58 593 377 1125 873 1455 411 274 883 381
1380 313z"/>
<path d="M2410 4334 c-14 -2 -59 -9 -100 -15 -644 -92 -1202 -563 -1410 -1188
-165 -494 -107 -1041 155 -1476 286 -474 765 -787 1309 -855 142 -18 434 -8
566 19 833 173 1429 897 1430 1736 1 996 -802 1794 -1795 1784 -71 -1 -141 -3
-155 -5z m285 -739 c32 -9 80 -27 107 -42 58 -31 147 -123 177 -181 116 -228
23 -501 -207 -610 -63 -30 -89 -36 -159 -40 -194 -10 -354 84 -436 258 -43 89
-50 215 -18 318 68 225 306 356 536 297z m355 -1003 c186 -62 336 -211 397
-396 26 -79 27 -89 31 -378 l4 -298 -897 0 -897 0 4 308 c3 305 4 308 30 382
56 152 160 270 303 341 132 65 160 68 585 66 354 -3 379 -4 440 -25z"/>
</g>
</svg>
