<?xml version="1.0" standalone="no"?>
<svg version="1.0" xmlns="http://www.w3.org/2000/svg"
 width="920.000000pt" height="513.000000pt" viewBox="0 0 920.000000 513.000000"
 preserveAspectRatio="xMidYMid meet">

<g transform="translate(0.000000,513.000000) scale(0.100000,-0.100000)"
fill="#fd9800" stroke="none">
<path d="M11 4932 c0 -20 3 -30 6 -22 3 8 10 22 14 32 6 11 4 18 -6 22 -12 4
-15 -3 -14 -32z"/>
<path d="M8754 4950 c-64 -25 -23 -130 99 -254 34 -34 81 -75 104 -90 71 -47
143 -51 143 -9 0 13 3 14 12 5 12 -12 58 -17 58 -6 0 4 -38 50 -85 104 l-85
97 -45 -10 -45 -10 24 -31 c13 -17 32 -33 42 -35 17 -3 53 -39 54 -53 1 -40
-133 74 -177 150 -34 57 -26 77 28 68 l40 -6 -31 39 c-38 47 -86 61 -136 41z"/>
<path d="M8568 4913 c-16 -2 -28 -8 -28 -11 0 -4 34 -47 75 -95 81 -94 97
-122 38 -66 -21 19 -71 61 -111 93 -70 57 -74 58 -113 50 l-40 -9 160 -191
c152 -183 160 -191 190 -186 17 2 33 8 36 12 2 4 -25 43 -62 86 -36 44 -73 88
-82 98 -9 11 37 -24 101 -77 112 -91 119 -95 149 -87 44 13 45 15 18 47 -179
213 -293 343 -298 342 -3 -1 -18 -4 -33 -6z"/>
<path d="M8292 4858 c-18 -5 -32 -12 -30 -16 2 -4 72 -91 155 -194 l153 -186
36 8 c19 5 37 10 39 12 2 2 -17 28 -42 58 -166 202 -257 310 -266 318 -7 5
-26 5 -45 0z"/>
<path d="M8148 4833 c-16 -2 -28 -7 -28 -10 0 -4 47 -63 149 -187 9 -11 -36
24 -101 77 -115 96 -117 97 -157 91 -23 -4 -40 -10 -39 -15 2 -4 71 -93 153
-197 l150 -190 35 5 c19 3 38 7 42 10 4 2 -32 52 -80 111 l-87 107 121 -102
c119 -100 122 -101 158 -93 21 4 39 10 41 12 7 7 -304 383 -318 384 -6 1 -24
-1 -39 -3z"/>
<path d="M136 4650 l-126 -171 0 -146 0 -147 61 85 c34 46 63 86 65 88 2 2 13
-4 25 -15 31 -28 20 -67 -52 -196 -51 -92 -59 -112 -48 -123 17 -16 149 -89
153 -84 1 2 27 60 58 130 69 154 75 182 50 232 l-20 37 57 0 c99 1 183 57 217
147 37 95 -2 149 -183 258 -68 41 -126 75 -127 75 -2 0 -60 -77 -130 -170z
m252 -111 c4 -34 -25 -74 -66 -90 -25 -10 -92 12 -92 29 0 6 20 38 45 72 l46
61 32 -20 c23 -14 33 -29 35 -52z"/>
<path d="M7775 4759 c-22 -5 -50 -11 -62 -14 -20 -5 -7 -25 133 -205 l156
-200 37 6 c20 4 39 9 44 11 4 2 -19 37 -51 76 -75 92 -77 97 -55 97 10 0 52
-36 94 -80 l77 -81 48 12 48 12 -84 79 c-46 43 -99 84 -117 90 -24 9 -32 17
-28 28 21 53 -20 122 -96 161 -41 20 -79 23 -144 8z m145 -104 c24 -25 21 -55
-4 -55 -20 0 -80 77 -64 82 21 7 45 -2 68 -27z"/>
<path d="M7513 4708 l-41 -9 103 -212 102 -212 39 3 c53 4 59 14 35 53 -27 44
-27 45 11 53 28 5 37 1 72 -33 39 -38 43 -40 79 -31 21 4 40 10 43 12 4 4 -64
71 -241 238 -168 157 -155 148 -202 138z m155 -187 c45 -51 49 -59 32 -64 -15
-4 -27 8 -54 55 -54 90 -49 91 22 9z"/>
<path d="M7323 4673 c-13 -2 -23 -9 -23 -14 0 -6 43 -77 95 -157 53 -81 86
-136 75 -122 -12 14 -67 81 -123 149 l-101 123 -39 -5 c-21 -3 -41 -8 -44 -10
-7 -7 10 -37 97 -167 118 -179 118 -180 -7 -25 -44 55 -98 119 -119 141 -38
41 -40 41 -83 32 l-44 -10 40 -41 c21 -23 106 -113 187 -199 155 -165 159
-168 223 -150 21 7 17 16 -78 162 -114 175 -113 175 37 -8 l109 -134 45 7 c25
4 46 8 47 9 2 1 -50 98 -115 214 -123 222 -118 217 -179 205z"/>
<path d="M520 4230 c-121 -170 -223 -316 -226 -324 -4 -10 15 -26 57 -51 34
-19 65 -37 69 -38 8 -2 104 128 203 278 33 50 57 81 55 70 -8 -29 -120 -398
-125 -411 -4 -10 125 -94 145 -94 13 0 444 629 438 639 -6 10 -128 83 -131 79
-1 -2 -38 -55 -82 -119 -45 -64 -100 -144 -122 -179 -23 -35 -41 -60 -41 -57
0 3 13 48 30 99 16 51 45 146 64 210 l34 118 -73 44 -74 45 -221 -309z"/>
<path d="M6425 4501 c-68 -28 -74 -117 -14 -217 47 -79 151 -188 204 -214 70
-34 115 -25 142 28 1 2 12 -3 25 -11 13 -8 33 -12 46 -8 22 6 19 11 -58 124
-45 64 -85 117 -90 117 -21 0 -110 -22 -110 -27 0 -3 9 -21 21 -39 14 -23 28
-34 44 -34 16 0 27 -10 38 -32 36 -74 -38 -49 -104 35 -102 128 -102 218 1
191 22 -6 40 -10 40 -7 0 15 -59 87 -78 94 -28 11 -80 11 -107 0z"/>
<path d="M6172 4446 l-42 -11 73 -110 c40 -60 77 -117 82 -125 5 -8 -47 38
-115 103 -68 64 -130 117 -139 116 -9 0 -33 -6 -53 -12 l-37 -12 141 -220 140
-220 39 2 c73 3 73 8 -12 137 -44 66 -79 122 -79 124 0 2 55 -48 121 -112 119
-114 122 -116 158 -110 78 14 82 1 -75 239 -79 121 -147 221 -152 221 -4 1
-26 -3 -50 -10z"/>
<path d="M5792 4372 c-13 -4 -23 -11 -22 -17 1 -5 62 -108 137 -228 l135 -218
42 6 c22 4 46 10 53 14 8 4 -32 78 -126 226 -126 200 -141 220 -167 222 -16 1
-39 -2 -52 -5z"/>
<path d="M5622 4338 c-23 -5 -41 -12 -38 -16 10 -18 118 -196 133 -220 9 -15
-38 26 -104 91 l-120 119 -57 -12 c-31 -6 -55 -15 -53 -18 13 -22 270 -458
272 -460 2 -3 97 18 103 23 2 2 -29 56 -69 121 -39 66 -74 124 -76 129 -3 6
48 -43 114 -109 l121 -118 51 7 c28 4 53 11 56 15 7 11 -267 460 -280 459 -5
-1 -29 -5 -53 -11z"/>
<path d="M8979 4265 c-90 -49 -86 -196 10 -390 67 -136 167 -265 206 -265 3 0
5 32 5 71 0 66 -2 74 -32 108 -39 44 -114 201 -123 258 -12 78 16 112 80 94
19 -5 35 -7 35 -5 0 12 -64 130 -74 136 -18 12 -79 8 -107 -7z"/>
<path d="M5095 4233 c-38 -8 -71 -16 -73 -18 -7 -7 261 -475 272 -475 6 0 32
6 58 13 l47 12 -54 95 c-29 52 -51 98 -49 102 6 9 34 -1 57 -21 13 -11 108
-133 122 -159 3 -4 110 20 117 27 4 3 -28 47 -70 96 -59 68 -88 94 -120 105
-43 16 -43 16 -22 35 44 40 14 133 -59 182 -41 27 -116 29 -226 6z m177 -100
c10 -9 18 -29 18 -44 0 -22 -6 -30 -25 -35 -14 -4 -27 -5 -29 -3 -1 2 -15 25
-30 52 l-27 47 37 0 c21 0 46 -7 56 -17z"/>
<path d="M1194 4158 c-28 -40 -125 -184 -217 -320 l-167 -246 68 -39 c37 -21
70 -39 74 -41 6 -3 442 638 436 642 -20 16 -128 76 -135 76 -5 0 -31 -33 -59
-72z"/>
<path d="M4773 4169 c-24 -6 -43 -15 -43 -20 0 -13 120 -491 125 -500 4 -6 75
4 112 16 9 3 8 15 -4 50 -17 53 -13 61 38 70 34 6 38 4 69 -37 19 -24 35 -44
36 -46 4 -6 124 20 124 27 0 15 -384 446 -399 448 -9 0 -35 -3 -58 -8z m147
-220 c27 -35 47 -67 44 -71 -3 -4 -16 -8 -28 -8 -23 0 -29 12 -74 140 -7 21 2
11 58 -61z"/>
<path d="M8720 4138 c-24 -10 -46 -21 -48 -23 -2 -2 38 -84 88 -182 50 -98 81
-165 68 -148 -63 82 -240 285 -248 285 -15 0 -100 -39 -100 -46 0 -9 320 -637
330 -647 6 -7 81 23 99 39 2 1 -38 83 -89 181 -50 98 -85 171 -78 163 8 -8 68
-79 133 -157 65 -79 120 -143 122 -143 2 0 26 11 53 25 l50 25 -162 318 c-88
174 -164 320 -167 323 -3 4 -26 -2 -51 -13z"/>
<path d="M4532 4120 c-18 -4 -35 -10 -37 -12 -4 -3 49 -134 130 -323 25 -59
17 -46 -90 130 -53 88 -101 165 -106 171 -10 12 -119 -4 -119 -18 0 -11 107
-273 131 -320 11 -21 16 -38 11 -38 -5 0 -14 12 -21 28 -7 15 -53 94 -103 175
-67 110 -94 147 -107 143 -9 -2 -35 -8 -59 -11 -28 -5 -42 -11 -39 -19 3 -7
79 -116 171 -243 l165 -230 53 10 c29 5 57 13 61 17 8 7 -27 98 -117 308 -19
45 -34 82 -32 82 1 0 52 -83 112 -185 77 -130 114 -185 127 -185 27 0 107 21
107 29 0 3 -36 116 -79 251 -86 270 -79 260 -159 240z"/>
<path d="M1280 3776 c-115 -174 -210 -320 -210 -325 0 -10 129 -86 135 -79 4
4 186 285 213 328 23 38 29 29 11 -17 -6 -15 -32 -108 -58 -206 -34 -124 -45
-180 -37 -186 24 -18 135 -75 139 -71 13 15 407 633 407 638 0 4 -30 24 -66
44 l-65 37 -56 -87 c-31 -48 -83 -130 -115 -182 -32 -52 -58 -90 -58 -85 0 6
9 37 19 70 10 33 36 125 56 204 l38 144 -21 16 c-12 9 -44 29 -72 44 l-49 28
-211 -315z"/>
<path d="M8345 3968 c-22 -11 -42 -22 -44 -25 -4 -2 305 -629 326 -662 1 -2
27 8 57 22 l54 26 -167 330 c-91 182 -170 331 -176 330 -5 0 -28 -9 -50 -21z"/>
<path d="M9155 3973 c-16 -8 -31 -17 -32 -18 -6 -4 59 -115 68 -115 5 0 9 34
9 75 0 41 -3 75 -7 75 -5 -1 -21 -8 -38 -17z"/>
<path d="M8157 3884 l-47 -25 96 -187 c54 -106 83 -172 67 -152 -15 19 -73 88
-128 154 -55 65 -105 125 -112 133 -10 13 -19 12 -67 -10 -31 -14 -56 -28 -56
-32 0 -5 329 -667 335 -673 5 -5 105 47 105 55 0 3 -43 90 -95 192 -52 102
-88 177 -80 166 73 -94 262 -314 271 -315 13 0 104 49 104 56 0 13 -332 664
-338 664 -4 -1 -28 -12 -55 -26z"/>
<path d="M3361 3888 c-130 -37 -158 -170 -73 -342 67 -135 153 -206 247 -206
35 0 52 6 70 25 14 13 25 29 25 36 0 8 7 6 18 -4 20 -18 59 -22 80 -9 10 7 1
35 -38 123 -28 63 -55 124 -60 137 -5 12 -18 22 -27 22 -24 -1 -134 -27 -140
-34 -3 -3 1 -22 10 -43 11 -28 21 -39 39 -41 38 -5 67 -83 36 -95 -37 -13 -82
30 -128 122 -43 83 -47 163 -11 192 25 21 75 25 115 9 14 -5 26 -8 26 -6 0 2
-11 28 -24 58 -21 47 -30 56 -57 62 -40 8 -66 7 -108 -6z"/>
<path d="M3025 3815 c-5 -2 -22 -6 -37 -9 -16 -4 -28 -11 -28 -16 0 -5 27 -73
59 -152 36 -85 52 -133 40 -118 -129 158 -213 250 -229 250 -33 0 -120 -21
-120 -29 0 -9 98 -269 111 -292 6 -13 171 -119 184 -119 2 0 -15 47 -39 105
-45 107 -48 130 -10 72 12 -17 63 -81 114 -140 88 -104 93 -108 123 -102 83
17 108 27 104 39 -3 7 -51 126 -108 265 -97 238 -104 251 -128 250 -14 0 -30
-2 -36 -4z"/>
<path d="M2535 3713 c-32 -8 -61 -15 -62 -17 -2 -1 2 -16 7 -32 8 -22 34 -43
101 -82 50 -30 92 -52 94 -50 4 5 -69 198 -75 197 -3 -1 -32 -8 -65 -16z"/>
<path d="M1972 3690 c-201 -95 -369 -429 -292 -580 26 -52 69 -74 131 -68 47
5 47 4 53 -27 4 -21 15 -36 34 -46 15 -7 30 -15 33 -17 4 -1 19 19 34 45 16
26 60 100 100 163 39 63 74 120 78 127 11 18 -163 119 -175 101 -5 -7 -21 -33
-35 -57 l-27 -44 22 -15 22 -14 -30 -43 c-38 -55 -59 -63 -83 -33 -23 28 -18
60 27 153 106 221 251 282 324 138 l18 -35 43 68 c42 67 42 69 28 100 -19 38
-72 81 -124 100 -61 21 -112 17 -181 -16z"/>
<path d="M7745 3690 c-47 -11 -205 -82 -205 -93 0 -18 333 -687 342 -687 12 0
108 49 108 55 0 3 -32 69 -70 146 l-71 140 33 -3 c33 -3 50 -24 151 -187 l37
-61 60 30 c40 20 58 35 54 43 -33 56 -160 230 -180 246 -14 11 -38 22 -53 26
l-29 6 21 49 c18 44 19 54 8 103 -28 125 -118 206 -206 187z m46 -160 c40 -22
64 -111 37 -138 -25 -25 -44 -12 -76 54 -18 37 -32 67 -30 69 6 4 43 24 46 25
2 0 12 -5 23 -10z"/>
<path d="M7293 3494 c-29 -14 -53 -31 -53 -37 -1 -12 201 -749 206 -756 4 -4
75 26 107 45 16 9 16 14 -8 84 -14 40 -24 75 -22 76 1 2 24 12 49 23 l47 20
36 -59 c20 -33 40 -62 45 -65 5 -3 37 8 70 25 l61 31 -28 38 c-164 222 -449
600 -453 600 -3 0 -29 -12 -57 -25z m237 -422 c0 -9 -50 -36 -55 -30 -2 2 -56
164 -73 218 -2 8 25 -29 62 -82 36 -54 66 -101 66 -106z"/>
<path d="M6738 3453 c12 -2 32 -2 45 0 12 2 2 4 -23 4 -25 0 -35 -2 -22 -4z"/>
<path d="M785 3443 c-11 -2 -180 -38 -375 -79 -195 -40 -365 -76 -377 -79 -16
-4 -23 -12 -22 -28 1 -18 2 -19 6 -4 3 11 11 16 19 13 9 -3 12 -1 9 4 -3 6 -1
10 4 10 11 0 15 -15 11 -35 -1 -5 2 -7 6 -3 4 4 13 3 20 -3 8 -7 14 -7 19 1 5
8 12 5 22 -7 8 -10 12 -12 8 -5 -7 14 11 17 20 2 4 -6 11 -8 16 -5 5 4 9 1 9
-5 0 -6 5 -8 10 -5 6 4 18 1 27 -7 14 -11 16 -11 9 2 -4 8 3 4 15 -10 17 -19
21 -20 15 -6 -5 15 -4 17 7 8 8 -7 18 -8 22 -4 5 4 5 2 1 -5 -7 -12 28 -28 43
-19 10 7 61 -101 221 -470 l18 -42 77 18 c42 10 78 20 81 23 3 2 -4 78 -16
168 -35 283 -36 281 36 64 37 -110 69 -203 73 -207 3 -3 40 1 81 11 l75 18 5
139 c3 76 7 124 8 106 2 -39 17 -56 56 -66 20 -5 32 -3 37 6 5 7 9 -24 9 -73
l0 -87 43 10 c23 6 59 14 80 19 l37 10 1 62 c1 63 2 64 13 15 8 -33 57 -62 92
-54 13 4 24 2 24 -3 0 -15 94 -42 147 -42 26 0 64 5 83 11 19 5 42 10 50 9 8
0 -3 -6 -24 -12 -34 -11 -42 -18 -55 -57 -9 -25 -23 -46 -31 -48 -12 -3 -13
-1 -2 9 15 16 16 29 1 29 -5 0 -7 -4 -4 -10 3 -5 3 -10 -2 -11 -4 0 -16 -2
-26 -4 -11 -2 -15 1 -11 8 4 7 1 7 -7 -1 -8 -7 -20 -32 -26 -55 -11 -36 -12
-37 -7 -7 17 107 17 113 3 108 -8 -2 -53 -13 -101 -24 l-88 -19 -1 -55 c-1
-47 -2 -51 -9 -26 -5 16 -6 34 -3 40 3 6 0 5 -7 -1 -8 -7 -17 -32 -21 -55 -6
-33 -7 -29 -3 20 3 37 1 62 -5 62 -11 0 -134 -27 -165 -36 -16 -5 -18 -14 -13
-73 l5 -66 -10 63 -11 63 -38 -6 c-20 -3 -61 -12 -91 -21 -29 -8 -66 -17 -83
-20 -16 -3 -93 -21 -170 -39 -77 -18 -194 -45 -260 -60 -66 -15 -127 -30 -135
-33 -8 -2 -22 -6 -30 -8 -8 -1 -61 -13 -117 -26 -98 -22 -103 -24 -103 -49 0
-24 3 -26 38 -23 55 6 295 23 392 29 47 2 119 7 160 10 41 3 206 14 365 25
379 26 612 43 780 55 33 2 132 9 220 15 219 14 288 19 373 26 l73 7 -103 57
-103 57 -6 -26 c-6 -25 -7 -25 -8 5 -1 38 -5 41 -111 95 -47 23 -97 51 -112
61 -16 11 -28 18 -28 16 0 -2 7 -21 15 -43 12 -34 22 -34 15 0 -1 5 7 2 17 -7
17 -16 22 -18 42 -18 5 0 11 -36 13 -80 2 -62 0 -77 -8 -65 -7 9 -11 29 -10
45 1 16 -1 27 -4 25 -3 -2 -6 7 -6 20 0 13 3 22 7 19 4 -2 5 6 2 17 l-6 21
-12 -22 c-11 -20 -13 -21 -19 -5 -10 28 -19 10 -11 -24 4 -17 11 -29 16 -26 5
4 6 -1 2 -10 -3 -10 -1 -20 4 -24 6 -3 7 -14 4 -24 -5 -12 -18 21 -41 98 -33
111 -36 118 -71 135 -20 11 -47 17 -60 14 -19 -3 -20 -3 -5 4 19 8 16 11 -154
104 -30 17 -107 61 -170 98 -63 37 -153 89 -200 115 -274 153 -343 191 -358
200 -78 46 -130 75 -133 74 -2 -1 -13 -3 -24 -6z m69 -55 c-3 -4 10 -5 28 -2
25 4 29 3 18 -5 -21 -15 -57 -14 -63 2 -3 8 1 14 9 14 7 0 11 -4 8 -9z m-255
-22 c9 -11 9 -16 -1 -22 -7 -4 -10 -4 -6 1 4 4 3 14 -3 22 -6 7 -9 13 -6 13 2
0 10 -6 16 -14z m32 -9 c-10 -9 -11 -8 -5 6 3 10 9 15 12 12 3 -3 0 -11 -7
-18z m54 14 c3 -5 2 -12 -3 -15 -5 -3 -9 1 -9 9 0 17 3 19 12 6z m145 -3 c0
-4 -7 -8 -15 -8 -11 0 -15 -12 -17 -42 l-1 -43 -4 39 c-3 21 -2 44 0 50 6 14
37 17 37 4z m-283 -15 c0 -9 -4 -10 -14 -2 -7 6 -13 12 -13 14 0 1 6 2 13 2 8
0 14 -6 14 -14z m153 -17 c0 -4 -11 -6 -25 -4 -14 3 -25 2 -25 -2 0 -4 -20
-11 -44 -14 -41 -6 -45 -10 -49 -39 -4 -26 -4 -25 -4 8 1 40 1 40 40 42 22 1
43 5 48 10 11 11 59 10 59 -1z m37 -15 c1 -14 -1 -19 -4 -11 -3 8 -10 20 -14
26 -5 6 -4 11 4 11 7 0 13 -12 14 -26z m240 -18 c-3 -10 -5 -4 -5 12 0 17 2
24 5 18 2 -7 2 -21 0 -30z m-530 -19 c-3 -3 -12 -4 -19 -1 -8 3 -5 6 6 6 11 1
17 -2 13 -5z m-357 -29 c14 -19 14 -19 -2 -6 -10 7 -18 18 -18 24 0 6 1 8 3 6
1 -2 9 -13 17 -24z m887 -147 c-2 -35 -3 -9 -3 57 0 66 1 94 3 63 2 -32 2 -86
0 -120z m-170 140 c-3 -8 -6 -5 -6 6 -1 11 2 17 5 13 3 -3 4 -12 1 -19z m290
-35 c-3 -10 -5 -4 -5 12 0 17 2 24 5 18 2 -7 2 -21 0 -30z m-530 -40 c-3 -10
-5 -2 -5 17 0 19 2 27 5 18 2 -10 2 -26 0 -35z m529 -80 c-3 -8 -10 -11 -16
-8 -6 4 -7 12 -3 18 9 14 10 17 13 60 3 28 4 26 7 -12 3 -24 2 -50 -1 -58z
m151 5 c-2 -18 -4 -6 -4 27 0 33 2 48 4 33 2 -15 2 -42 0 -60z m-687 2 c4 0 6
12 4 26 -1 15 1 23 5 18 4 -5 15 -63 25 -129 9 -66 20 -131 23 -145 3 -14 3
-22 -1 -19 -5 5 -80 255 -91 304 -2 11 3 3 12 -17 8 -21 19 -38 23 -38z m728
30 c7 -18 7 -30 1 -30 -5 0 -9 9 -9 19 0 11 -4 23 -10 26 -5 3 -10 11 -10 16
0 19 18 -1 28 -31z m-444 -124 c9 -50 14 -91 13 -93 -3 -2 -55 172 -63 212 -2
11 2 7 11 -10 l15 -30 -4 35 c-5 34 -5 34 3 5 5 -16 16 -70 25 -119z m706 4
c0 -6 11 -28 25 -50 26 -40 36 -70 12 -35 -39 58 -57 95 -48 95 6 0 11 -5 11
-10z m-172 -65 c15 -32 15 -48 2 -40 -6 4 -8 10 -5 15 3 4 -2 13 -10 20 -16
14 -20 30 -7 30 5 0 14 -11 20 -25z m259 3 c-3 -8 -6 -5 -6 6 -1 11 2 17 5 13
3 -3 4 -12 1 -19z m-48 -62 c-3 -3 -24 -9 -48 -15 -24 -5 -39 -6 -35 -1 12 11
94 26 83 16z m202 -45 c-8 -5 -11 -16 -8 -24 4 -10 -2 -17 -16 -21 -37 -10
-44 -7 -43 17 1 28 7 32 48 35 23 1 29 -1 19 -7z m-84 -17 c-3 -3 -12 -4 -19
-1 -8 3 -5 6 6 6 11 1 17 -2 13 -5z m-147 -144 c0 -5 -2 -10 -4 -10 -3 0 -8 5
-11 10 -3 6 -1 10 4 10 6 0 11 -4 11 -10z m255 -27 c4 -21 9 -47 12 -58 4 -15
2 -17 -6 -9 -6 6 -13 27 -14 47 -2 20 -7 40 -12 44 -4 5 -5 -2 -2 -15 3 -12 1
-20 -4 -16 -5 3 -9 12 -9 21 0 13 -2 14 -17 2 -13 -11 -15 -11 -9 -1 6 10 2
13 -15 10 -19 -2 -26 -12 -36 -53 l-13 -50 6 50 c3 28 8 53 11 58 2 4 26 7 53
7 49 0 49 0 55 -37z m-276 -42 c-7 -23 -14 -39 -16 -37 -3 2 1 23 8 45 7 23
14 39 16 37 3 -2 -1 -23 -8 -45z m242 22 c13 -16 12 -17 -3 -4 -10 7 -18 15
-18 17 0 8 8 3 21 -13z m-16 -21 c-3 -3 1 -12 8 -21 11 -14 10 -14 -6 -2 -9 8
-15 16 -12 19 3 3 -1 12 -8 21 -11 14 -10 14 6 2 9 -8 15 -16 12 -19z m-308
-24 c-3 -7 -5 -2 -5 12 0 14 2 19 5 13 2 -7 2 -19 0 -25z m701 6 c-8 -7 -88
-8 -95 0 -4 3 18 6 47 6 29 0 51 -3 48 -6z m-183 -9 c-25 -9 -107 -12 -94 -4
8 5 34 8 59 8 25 0 41 -2 35 -4z m-338 -21 c-3 -3 -12 -4 -19 -1 -8 3 -5 6 6
6 11 1 17 -2 13 -5z m-70 -10 c-3 -3 -12 -4 -19 -1 -8 3 -5 6 6 6 11 1 17 -2
13 -5z m-164 -11 c-18 -2 -48 -2 -65 0 -18 2 -4 4 32 4 36 0 50 -2 33 -4z
m-183 -7 c0 -2 -15 -6 -34 -8 -19 -2 -32 0 -30 4 5 8 64 12 64 4z m-107 -13
c-7 -2 -19 -2 -25 0 -7 3 -2 5 12 5 14 0 19 -2 13 -5z m-768 -42 c3 -5 2 -12
-3 -15 -5 -3 -9 1 -9 9 0 17 3 19 12 6z"/>
<path d="M6445 3444 c-16 -2 -138 -8 -270 -14 -132 -6 -368 -17 -525 -25 -157
-8 -337 -17 -400 -20 -63 -3 -142 -7 -175 -10 -33 -2 -116 -7 -185 -10 -69 -3
-249 -12 -400 -20 -151 -8 -342 -17 -423 -21 -81 -4 -150 -11 -153 -15 -2 -4
-10 -7 -17 -5 -7 1 -9 1 -4 -1 10 -7 9 -31 -3 -38 -5 -3 -7 0 -4 9 4 10 0 13
-13 11 -10 -2 -18 -4 -18 -5 0 -2 -38 -11 -52 -12 -18 -2 -6 -11 18 -15 13 -2
18 1 13 9 -4 7 -3 8 4 4 29 -18 7 -26 -62 -24 -41 2 -73 1 -70 -1 2 -2 -11
-14 -30 -27 -46 -31 -69 -85 -74 -170 l-4 -71 78 -45 c110 -63 158 -92 239
-143 39 -24 73 -45 76 -45 3 0 4 15 2 33 -3 27 -2 29 7 14 8 -13 15 -15 24 -8
6 5 25 12 41 15 17 2 30 5 30 6 0 3 52 11 77 13 9 1 14 5 12 9 -3 4 3 8 13 9
10 0 25 2 33 4 8 2 28 7 44 10 16 3 41 12 56 20 15 8 49 16 76 19 27 2 49 5
49 6 0 2 25 8 65 16 19 3 41 10 47 16 7 6 19 8 27 5 11 -4 14 1 11 21 -2 15
17 -17 43 -71 l47 -99 59 6 c33 3 60 7 62 9 1 1 -4 43 -11 92 -7 50 -15 113
-18 140 l-6 50 18 -50 c10 -27 33 -92 51 -144 l33 -93 36 6 c20 3 47 6 60 6
l24 0 -5 158 c-3 86 -4 140 -1 120 4 -37 7 -40 38 -40 30 0 35 2 36 20 3 33
17 -103 18 -175 l1 -73 61 0 61 0 -4 53 -3 52 46 3 45 3 23 -49 23 -50 62 5
c33 3 62 7 64 8 1 1 -20 42 -49 91 -28 49 -64 115 -80 146 l-29 58 25 -10 c15
-6 26 -6 30 0 4 6 15 10 26 10 11 0 19 7 19 18 1 32 16 -7 59 -148 23 -74 43
-140 46 -147 5 -16 105 24 105 42 0 6 -9 38 -20 71 -25 71 -23 85 7 73 14 -5
34 -31 50 -64 15 -30 32 -55 38 -55 5 0 29 9 52 20 l42 19 -26 47 c-14 25 -42
56 -61 67 -34 20 -34 20 -14 36 28 22 43 64 36 103 -4 24 -3 29 4 19 8 -12 13
-12 25 -3 13 11 19 0 45 -70 16 -46 35 -102 42 -125 7 -24 14 -43 16 -43 13 0
94 41 94 48 0 5 -7 26 -16 47 -21 51 -13 53 16 4 28 -45 33 -45 125 -4 30 13
55 30 55 38 0 7 -13 53 -30 102 -36 105 -36 109 -10 95 17 -9 22 -7 28 10 7
18 15 3 47 -77 21 -54 39 -100 41 -102 4 -5 94 31 94 38 0 3 -12 41 -26 84
-14 43 -24 80 -23 81 2 2 16 6 30 10 25 5 28 2 55 -62 15 -37 31 -71 34 -75 4
-4 35 5 69 20 l62 28 -38 53 c-33 45 -42 52 -66 49 -15 -2 -30 0 -33 5 -3 4 9
9 25 9 40 2 43 3 60 13 11 7 12 6 6 -5 -7 -11 -6 -12 7 -2 8 7 18 10 21 6 4
-3 7 -1 7 7 0 10 3 10 14 1 12 -10 17 -8 25 8 9 17 23 21 84 24 51 2 42 3 -33
3 -58 1 -118 -1 -135 -2z m-100 -64 c-3 -5 -12 -10 -18 -10 -7 0 -6 4 3 10 19
12 23 12 15 0z m-1197 -67 c-10 -2 -28 -2 -40 0 -13 2 -5 4 17 4 22 1 32 -1
23 -4z m-1226 -25 c-7 -7 -12 -8 -12 -2 0 6 3 14 7 17 3 4 9 5 12 2 2 -3 -1
-11 -7 -17z m55 15 c-4 -3 -1 -13 6 -22 11 -14 10 -14 -5 -2 -16 12 -16 31 -1
31 4 0 3 -3 0 -7z m970 0 c-20 -2 -52 -2 -70 0 -17 2 0 4 38 4 39 0 53 -2 32
-4z m130 -40 c-3 -10 -5 -2 -5 17 0 19 2 27 5 18 2 -10 2 -26 0 -35z m-299 30
c-16 -2 -40 -2 -55 0 -16 2 -3 4 27 4 30 0 43 -2 28 -4z m1221 -102 c45 -116
44 -116 -26 -11 -68 103 -66 99 -43 93 14 -4 20 0 20 13 0 27 5 17 49 -95z
m-1454 92 c-33 -2 -63 -10 -67 -16 -5 -8 -8 -8 -8 -1 0 20 13 24 74 22 l61 -2
-60 -3z m291 -110 c-5 -5 -36 86 -35 101 0 6 9 -13 20 -43 10 -30 17 -56 15
-58z m11 75 c-3 -7 -5 -2 -5 12 0 14 2 19 5 13 2 -7 2 -19 0 -25z m140 -30
c-2 -13 -4 -5 -4 17 -1 22 1 32 4 23 2 -10 2 -28 0 -40z m-320 10 c-3 -7 -5
-2 -5 12 0 14 2 19 5 13 2 -7 2 -19 0 -25z m-777 10 c0 -5 4 -7 9 -3 5 3 13 0
17 -6 5 -8 3 -9 -6 -4 -8 5 -11 2 -7 -11 3 -11 8 -39 11 -64 l5 -45 -10 40
c-6 22 -12 50 -15 63 -2 12 -11 22 -19 22 -8 0 -15 4 -15 8 0 5 7 9 15 9 8 0
15 -4 15 -9z m604 -4 c3 -8 2 -12 -4 -9 -6 3 -10 10 -10 16 0 14 7 11 14 -7z
m1106 -39 c5 -14 7 -32 4 -40 -8 -20 -50 -19 -58 1 -8 22 -9 22 20 16 25 -4
26 -3 22 22 -7 33 0 34 12 1z m-923 -17 c-3 -8 -6 -5 -6 6 -1 11 2 17 5 13 3
-3 4 -12 1 -19z m-138 -50 c6 -18 7 -28 2 -23 -10 12 -25 55 -18 55 3 0 10
-15 16 -32z m328 10 c-3 -8 -6 -5 -6 6 -1 11 2 17 5 13 3 -3 4 -12 1 -19z
m-1050 -18 c-21 -4 -43 -12 -50 -19 -13 -13 -16 -114 -5 -176 7 -34 6 -36 -4
-15 -6 14 -11 60 -12 103 -1 71 1 80 23 98 13 11 37 18 55 18 30 -1 30 -2 -7
-9z m67 -8 c2 -4 -4 -8 -14 -8 -10 0 -16 4 -14 8 3 4 9 8 14 8 5 0 11 -4 14
-8z m1366 -97 c0 -3 -13 -5 -30 -5 -30 0 -30 0 -30 58 l0 57 30 -52 c17 -29
30 -55 30 -58z m-686 59 c3 -8 2 -12 -4 -9 -6 3 -10 10 -10 16 0 14 7 11 14
-7z m314 -15 c-3 -8 -7 -3 -11 10 -4 17 -3 21 5 13 5 -5 8 -16 6 -23z m-179
-19 c0 -10 -3 -8 -9 5 -12 27 -12 43 0 25 5 -8 9 -22 9 -30z m188 -22 c-3 -8
-6 -5 -6 6 -1 11 2 17 5 13 3 -3 4 -12 1 -19z m-947 0 c0 -4 -35 -7 -77 -6
-75 1 -76 1 -23 7 78 8 100 8 100 -1z m-163 -30 c-3 -8 -6 -5 -6 6 -1 11 2 17
5 13 3 -3 4 -12 1 -19z m1120 -10 c-3 -8 -6 -5 -6 6 -1 11 2 17 5 13 3 -3 4
-12 1 -19z m-930 -30 c-3 -7 -5 -2 -5 12 0 14 2 19 5 13 2 -7 2 -19 0 -25z
m-180 -10 c-3 -7 -5 -2 -5 12 0 14 2 19 5 13 2 -7 2 -19 0 -25z"/>
<path d="M9182 3431 c-12 -7 -11 -13 2 -37 l15 -29 1 38 c0 20 -1 37 -2 37 -2
0 -9 -4 -16 -9z"/>
<path d="M7048 3383 c-32 -14 -58 -29 -58 -32 0 -4 48 -122 106 -262 128 -308
125 -301 74 -209 -119 216 -243 431 -251 435 -11 7 -119 -42 -119 -53 0 -6 42
-111 94 -234 119 -282 128 -306 116 -288 -6 8 -69 119 -141 245 -71 127 -134
234 -139 239 -9 9 -116 -29 -126 -45 -3 -6 413 -644 442 -678 7 -8 124 52 124
63 0 6 -45 119 -101 251 -156 370 -155 363 -23 125 47 -85 111 -199 141 -252
l54 -98 60 30 c32 17 59 34 59 38 0 13 -242 737 -248 743 -4 4 -33 -5 -64 -18z"/>
<path d="M9082 3379 c-24 -12 -42 -25 -40 -29 2 -5 37 -67 78 -138 l75 -131 3
76 c3 68 0 80 -24 117 l-27 41 27 -24 26 -24 0 34 c0 23 -10 44 -30 67 -16 17
-33 32 -37 32 -5 0 -27 -10 -51 -21z"/>
<path d="M6548 3383 c-21 -2 -38 -6 -38 -8 0 -12 35 -75 42 -75 15 0 78 34 78
43 0 18 -21 47 -33 45 -7 -1 -29 -3 -49 -5z"/>
<path d="M3855 3320 c-16 -7 -17 -9 -3 -9 9 -1 20 4 23 9 7 11 7 11 -20 0z"/>
<path d="M8948 3312 c-16 -10 -28 -20 -28 -24 0 -3 27 -54 61 -112 l61 -106
44 0 c24 0 44 4 44 10 0 14 -141 250 -149 249 -3 0 -18 -8 -33 -17z"/>
<path d="M8797 3234 l-48 -25 40 -47 c77 -92 94 -104 144 -100 l46 3 -56 98
c-30 53 -60 97 -67 97 -6 -1 -33 -12 -59 -26z"/>
<path d="M3667 3237 c4 -6 0 -8 -10 -4 -10 3 -17 3 -17 -1 0 -4 -11 -9 -26
-10 -14 -1 -33 -6 -44 -12 -13 -7 -20 -6 -23 3 -3 6 -4 -2 -3 -18 2 -34 14
-58 25 -51 4 3 8 -2 8 -10 0 -11 -6 -9 -23 7 -12 12 -21 29 -19 40 2 10 0 21
-6 24 -5 4 -10 -13 -10 -37 -1 -24 -3 -32 -6 -18 -12 75 -9 73 -73 68 -33 -2
-61 -6 -63 -9 -2 -2 -1 -26 2 -54 7 -55 22 -68 145 -134 68 -36 66 -36 66 -15
0 9 -5 12 -12 8 -10 -6 -10 -5 -1 7 6 8 12 32 14 54 2 22 8 48 14 58 7 13 6
20 -5 28 -13 9 -12 10 2 5 12 -3 22 2 29 16 6 11 23 31 37 43 19 16 21 22 9
22 -9 0 -13 -5 -10 -10z m-86 -40 c-6 -8 -8 -16 -5 -19 3 -3 1 -9 -4 -12 -6
-3 -9 0 -8 6 2 16 15 38 23 38 3 0 0 -6 -6 -13z m20 -10 c-10 -9 -11 -8 -5 6
3 10 9 15 12 12 3 -3 0 -11 -7 -18z m-66 -105 c1 -51 0 -53 -8 -25 -8 26 -4
83 6 83 1 0 2 -26 2 -58z"/>
<path d="M2834 2861 l-131 -349 65 -36 c35 -20 67 -36 71 -36 3 0 73 104 155
230 83 127 151 230 152 230 3 0 -51 -116 -165 -354 -39 -82 -70 -150 -69 -151
34 -25 133 -74 138 -68 4 4 83 105 175 223 93 118 192 245 222 282 l53 67 -22
15 c-13 7 -42 26 -66 40 l-42 27 -151 -228 c-83 -126 -150 -223 -148 -218 2 6
24 51 48 100 107 216 178 381 171 390 -12 14 -119 70 -124 64 -2 -2 -66 -98
-141 -214 -157 -238 -170 -256 -125 -166 35 71 200 422 200 427 0 5 -120 74
-128 74 -4 0 -66 -157 -138 -349z"/>
<path d="M8692 3182 c-17 -9 -32 -20 -32 -25 0 -5 12 -31 27 -58 25 -47 28
-49 70 -49 23 0 43 2 43 5 0 7 -36 78 -58 114 -17 28 -18 28 -50 13z"/>
<path d="M3260 3181 c0 -5 7 -12 16 -15 22 -9 24 -8 18 9 -7 16 -34 21 -34 6z"/>
<path d="M3310 3154 c0 -2 14 -10 30 -19 17 -9 30 -11 30 -5 0 5 -5 10 -11 10
-5 0 -8 4 -5 9 3 5 -6 9 -19 9 -14 0 -25 -2 -25 -4z"/>
<path d="M8557 3114 c-27 -15 -27 -15 -10 -44 16 -27 22 -30 70 -30 29 0 53 3
53 6 0 13 -62 84 -73 84 -7 -1 -25 -8 -40 -16z"/>
<path d="M8430 3050 l-35 -19 54 -1 c44 0 52 3 47 16 -3 9 -6 18 -6 20 0 9
-27 2 -60 -16z"/>
<path d="M9143 3003 c9 -2 25 -2 35 0 9 3 1 5 -18 5 -19 0 -27 -2 -17 -5z"/>
<path d="M9008 2993 c12 -2 30 -2 40 0 9 3 -1 5 -23 4 -22 0 -30 -2 -17 -4z"/>
<path d="M8888 2983 c7 -3 16 -2 19 1 4 3 -2 6 -13 5 -11 0 -14 -3 -6 -6z"/>
<path d="M8728 2973 c6 -2 18 -2 25 0 6 3 1 5 -13 5 -14 0 -19 -2 -12 -5z"/>
<path d="M5855 2851 c-54 -13 -95 -41 -123 -83 -23 -36 -27 -54 -30 -129 -3
-61 1 -105 13 -146 59 -203 188 -396 300 -449 87 -41 142 -25 170 51 l18 45
27 -17 c24 -14 33 -14 59 -3 17 7 31 16 31 20 0 4 -43 96 -95 205 -62 128
-100 195 -108 192 -80 -33 -157 -72 -157 -79 0 -5 14 -36 30 -68 27 -54 33
-60 55 -54 22 5 27 1 45 -42 25 -57 23 -88 -6 -92 -47 -7 -125 94 -184 239
-57 137 -49 225 23 248 19 7 40 10 48 7 8 -2 26 -7 42 -10 l27 -7 -41 83 c-23
46 -42 84 -43 84 -8 7 -78 10 -101 5z"/>
<path d="M3394 2563 c-125 -142 -234 -266 -243 -276 -14 -16 -14 -20 -1 -27 8
-5 38 -23 66 -39 l52 -30 46 59 46 59 45 -26 c25 -13 47 -28 50 -33 3 -5 -6
-38 -19 -74 l-25 -65 69 -40 c38 -22 71 -37 74 -33 7 12 197 714 194 717 -9 7
-115 65 -121 65 -3 0 -108 -116 -233 -257z m150 -79 c-19 -54 -37 -100 -39
-102 -1 -2 -17 5 -34 16 l-30 18 66 87 c36 48 68 86 70 84 2 -2 -13 -48 -33
-103z"/>
<path d="M1980 2741 c0 -5 5 -13 10 -16 6 -3 10 -2 10 4 0 5 -4 13 -10 16 -5
3 -10 2 -10 -4z"/>
<path d="M5440 2657 c-36 -16 -66 -30 -68 -32 -2 -2 44 -101 102 -221 80 -165
98 -209 73 -179 -54 67 -287 334 -295 339 -6 3 -136 -48 -149 -59 -2 -1 60
-136 138 -301 78 -164 161 -341 184 -392 l44 -93 70 35 70 36 -73 152 c-40 84
-88 182 -105 218 -37 75 -46 83 124 -114 61 -71 124 -145 141 -165 l32 -36 71
34 c39 19 71 36 71 38 0 4 -349 744 -358 759 -5 7 -29 1 -72 -19z"/>
<path d="M3887 2538 c-187 -353 -278 -531 -273 -536 6 -5 170 63 194 82 8 5
25 31 38 58 28 55 40 59 56 21 7 -16 13 -29 14 -31 0 -1 22 7 48 18 26 11 44
24 41 30 -4 6 6 10 23 10 45 0 119 37 146 73 32 43 50 107 42 151 -10 52 -46
89 -144 148 -48 28 -97 58 -109 65 -20 14 -23 10 -76 -89z m156 -126 c39 -34
2 -122 -52 -122 -15 0 -35 6 -44 13 -15 11 -14 17 19 75 36 63 40 65 77 34z"/>
<path d="M4913 2420 c-35 -16 -63 -32 -63 -35 0 -5 360 -777 365 -783 5 -6
145 61 145 69 0 9 -108 243 -278 604 -45 94 -87 171 -94 172 -7 1 -41 -11 -75
-27z"/>
<path d="M4310 2353 c-14 -27 -26 -51 -28 -56 -4 -8 117 41 132 54 6 6 -61 49
-77 49 -1 0 -14 -21 -27 -47z"/>
<path d="M4658 2305 l-66 -34 89 -192 c50 -105 97 -202 106 -215 32 -50 5 -32
-44 29 -92 114 -274 317 -285 317 -18 0 -148 -62 -148 -70 0 -4 51 -117 113
-251 63 -134 145 -311 182 -394 38 -82 71 -152 72 -155 2 -2 37 12 78 33 l74
36 -48 103 c-27 57 -74 157 -105 222 -31 65 -56 121 -56 123 0 2 21 -22 47
-54 78 -96 286 -333 292 -333 3 1 39 18 78 38 l72 37 -184 394 c-102 217 -185
396 -185 398 0 7 -20 0 -82 -32z"/>
<path d="M3935 1980 c-71 -32 -134 -61 -139 -63 -5 -1 49 -129 119 -282 70
-154 154 -340 188 -412 33 -73 64 -133 69 -133 16 0 148 70 148 79 0 4 -33 80
-74 169 -41 88 -71 163 -68 166 3 3 18 6 33 6 38 0 61 -27 148 -171 40 -65 75
-119 79 -119 14 0 162 74 162 81 0 10 -165 247 -193 278 -26 28 -76 51 -113
51 -25 0 -26 1 -12 18 61 68 70 176 22 268 -16 31 -46 71 -67 88 -33 26 -48
31 -105 33 -63 3 -74 0 -197 -57z m201 -145 c28 -19 46 -65 42 -106 -2 -25
-12 -39 -38 -57 l-35 -24 -37 79 c-21 43 -38 83 -38 89 0 13 37 32 65 33 11 1
30 -6 41 -14z"/>
<path d="M459 1965 c-4 0 -35 -491 -32 -497 2 -5 24 -8 48 -8 l44 0 17 58 c9
31 32 111 50 177 18 66 33 115 33 109 1 -6 -10 -82 -24 -170 -14 -87 -25 -165
-25 -171 0 -9 16 -13 49 -13 l48 0 87 241 c48 133 86 243 84 244 -2 2 -23 5
-47 7 l-44 3 -48 -165 c-26 -91 -48 -160 -48 -155 0 6 10 80 22 167 l23 156
-45 4 c-25 3 -47 4 -48 3 -1 0 -25 -82 -53 -180 -28 -99 -48 -164 -45 -145 14
89 45 302 45 315 0 10 -55 22 -91 20z"/>
<path d="M835 1693 c-55 -130 -101 -239 -103 -244 -2 -4 20 -9 48 -11 l50 -3
16 48 c15 46 17 47 56 47 l40 0 -4 -49 c-3 -55 3 -61 70 -61 l33 0 -3 178 c-1
97 -4 212 -6 255 l-4 77 -46 0 -47 0 -100 -237z m115 -3 c0 -68 -1 -70 -25
-70 -14 0 -25 3 -25 8 0 10 43 132 47 132 2 0 3 -31 3 -70z"/>
<path d="M1175 1907 c-13 -39 -93 -481 -89 -488 3 -5 25 -9 48 -9 l44 0 17 93
c21 108 25 119 44 108 12 -8 16 -105 8 -186 -2 -17 5 -20 51 -23 l52 -3 0 104
c0 90 -3 108 -21 131 -11 14 -16 26 -10 26 6 0 26 14 45 30 71 63 68 186 -6
208 -55 17 -178 23 -183 9z m133 -130 c4 -33 -22 -67 -51 -67 -17 0 -19 5 -13
38 3 20 6 43 6 50 0 9 10 12 28 10 21 -2 28 -9 30 -31z"/>
<path d="M1481 1847 c-22 -106 -81 -431 -81 -445 0 -9 13 -12 47 -10 l48 3 21
128 c22 134 34 169 34 99 0 -23 5 -86 11 -140 l12 -100 45 -6 c25 -3 49 -3 53
1 6 7 89 471 89 496 0 5 -21 7 -47 5 l-48 -3 -20 -122 c-11 -68 -22 -123 -25
-123 -3 0 -11 57 -18 127 -6 69 -13 127 -14 128 -2 1 -24 5 -50 8 l-47 6 -10
-52z"/>
<path d="M1826 1843 c-3 -16 -15 -82 -26 -148 -11 -66 -28 -166 -38 -222 -21
-114 -21 -113 47 -113 l38 0 37 228 c21 125 40 239 43 255 5 27 5 27 -45 27
-47 0 -51 -2 -56 -27z"/>
<path d="M1995 1838 c-11 -53 -75 -447 -75 -467 0 -18 6 -21 48 -21 l48 0 20
143 20 142 18 -147 c18 -143 20 -148 42 -148 13 0 38 7 56 16 l33 16 34 226
c19 125 34 232 35 237 0 6 -20 11 -45 13 l-47 3 -11 -63 c-6 -35 -15 -96 -21
-137 -12 -85 -20 -103 -20 -45 0 21 -7 84 -15 139 -8 55 -15 103 -15 108 0 4
-22 7 -50 7 -43 0 -50 -3 -55 -22z"/>
<path d="M2434 1826 c-77 -34 -133 -148 -141 -293 -8 -124 -5 -129 50 -102
l44 22 6 77 c7 91 29 152 65 180 31 25 47 25 82 0 l28 -20 7 57 c6 48 4 58
-12 67 -46 27 -85 31 -129 12z"/>
<path d="M3452 1763 c-61 -27 -81 -41 -78 -52 5 -15 139 -650 173 -816 9 -44
19 -84 23 -88 4 -5 43 9 86 30 43 21 80 39 82 39 2 1 -8 41 -22 90 -14 48 -25
88 -23 90 9 8 130 65 132 62 1 -2 23 -36 49 -75 25 -40 48 -73 50 -73 2 0 43
19 90 41 58 28 83 45 78 53 -5 6 -127 169 -272 361 -144 193 -268 355 -274
362 -8 9 -30 3 -94 -24z m174 -340 c31 -49 67 -105 80 -125 l24 -38 -42 -20
c-23 -11 -42 -19 -44 -17 -1 1 -16 56 -34 121 -17 66 -36 130 -41 143 -16 42
0 24 57 -64z"/>
<path d="M3080 1775 c0 -18 8 -18 40 0 l25 14 -32 1 c-23 0 -33 -5 -33 -15z"/>
<path d="M3113 1610 l-81 -38 93 -258 c51 -143 104 -287 118 -321 14 -35 22
-63 18 -63 -3 0 -24 35 -45 78 -45 92 -266 504 -275 515 -6 5 -152 -53 -169
-68 -4 -3 151 -434 199 -555 21 -52 36 -96 34 -98 -2 -2 -18 25 -36 59 -23 48
-284 530 -294 547 -4 5 -175 -73 -175 -80 0 -4 34 -60 76 -125 75 -115 435
-665 439 -671 3 -4 175 77 175 83 0 7 -139 384 -201 545 -27 68 -46 126 -44
128 2 2 20 -29 41 -69 53 -106 285 -543 294 -552 5 -6 147 53 169 70 6 4 -242
913 -248 912 -4 0 -43 -17 -88 -39z"/>
<path d="M5537 1609 l-58 -30 30 -35 c17 -19 31 -41 31 -49 0 -31 16 -12 43
50 42 99 37 106 -46 64z"/>
<path d="M5883 1613 c3 -5 29 -23 56 -41 l51 -31 0 34 c0 30 -3 35 -24 35 -13
0 -38 3 -56 7 -21 4 -31 2 -27 -4z"/>
<path d="M6047 1604 c-4 -4 -7 -26 -7 -50 0 -39 3 -44 50 -74 55 -35 60 -41
30 -33 -19 5 -20 0 -20 -100 0 -60 4 -109 10 -112 6 -3 8 -16 5 -28 -13 -58
-126 -523 -130 -534 -3 -9 91 -73 108 -73 2 0 45 90 97 199 52 110 96 199 97
197 1 -1 -29 -96 -67 -211 -39 -115 -70 -212 -70 -215 0 -5 34 -24 101 -58 7
-3 329 553 329 567 0 7 -89 56 -102 56 -5 0 -45 -79 -91 -175 -102 -216 -109
-230 -101 -205 3 11 35 106 70 210 36 105 63 199 60 210 -5 19 -4 19 8 2 10
-13 26 -17 60 -16 25 1 46 6 46 11 0 5 5 6 10 3 6 -4 8 -10 5 -15 -3 -5 0 -12
6 -16 7 -4 9 -3 5 4 -3 6 -2 13 4 17 6 4 8 11 4 16 -3 5 -10 7 -15 4 -5 -4 -9
-1 -9 4 0 6 -5 11 -11 11 -5 0 -8 -4 -4 -9 3 -5 1 -12 -4 -15 -5 -4 -8 2 -6
11 1 10 -5 27 -14 37 -12 14 -4 12 34 -9 28 -16 56 -33 63 -38 7 -5 14 -8 16
-6 3 3 -54 283 -79 387 -5 19 -12 22 -58 22 l-53 0 -24 -97 c-12 -54 -27 -113
-32 -131 l-9 -32 -39 22 c-22 13 -40 28 -39 33 0 6 8 55 19 110 10 55 18 101
17 101 -1 1 -25 4 -54 8 l-51 6 -7 -67 c-3 -38 -9 -80 -11 -95 -4 -19 -1 -28
8 -28 10 0 10 -2 -1 -9 -29 -19 -38 -1 -40 77 -2 84 -5 109 -12 115 -9 9 -95
17 -102 11z m449 -352 c-2 -2 -15 0 -29 3 -22 6 -24 10 -17 38 5 18 12 55 16
82 l7 50 13 -85 c7 -46 11 -86 10 -88z m-310 115 c1 -9 -2 -17 -8 -17 -6 0 -4
-7 3 -17 12 -14 12 -16 -1 -11 -9 3 -15 17 -15 36 0 33 16 40 21 9z m110 -63
c8 -55 18 -59 11 -4 -4 34 -3 41 5 27 5 -11 8 -32 6 -48 -3 -16 -1 -29 3 -29
4 0 10 15 12 33 l4 32 -1 -35 c0 -20 4 -42 9 -50 8 -13 7 -13 -8 -1 -10 8 -19
12 -21 10 -3 -2 -42 -85 -88 -184 -105 -224 -110 -235 -103 -210 4 11 31 91
61 178 55 159 82 248 91 300 7 35 11 31 19 -19z"/>
<path d="M6281 1268 c0 -20 -5 -39 -11 -43 -5 -3 -6 -13 -3 -22 4 -10 2 -14
-4 -10 -13 8 -11 -18 1 -30 4 -4 6 -3 5 2 -2 6 2 19 8 30 11 20 13 27 13 46 0
5 6 7 13 3 9 -6 9 -5 1 7 -7 8 -14 23 -17 34 -3 12 -5 5 -6 -17z"/>
<path d="M6219 1094 c-5 -15 -8 -29 -5 -31 2 -2 8 10 14 26 13 38 5 41 -9 5z"/>
<path d="M2436 1578 c-13 -50 -7 -76 19 -82 36 -9 101 26 109 60 4 14 6 27 4
29 -2 1 -31 5 -64 9 -58 6 -62 5 -68 -16z"/>
<path d="M6696 1562 c-3 -3 -6 -103 -6 -223 l0 -217 53 -30 52 -29 3 93 c1 52
6 94 11 94 24 0 41 -43 51 -130 7 -52 13 -95 13 -96 1 -1 28 -4 60 -8 67 -7
65 -12 41 115 -17 92 -35 133 -60 143 -14 5 -10 12 22 40 35 31 38 37 42 97 4
59 2 68 -22 96 -15 18 -41 36 -59 41 -37 12 -193 23 -201 14z m166 -126 c4 -6
8 -22 8 -36 0 -31 -10 -47 -30 -50 -36 -5 -40 0 -40 55 0 55 0 55 28 49 15 -4
30 -12 34 -18z"/>
<path d="M7040 1280 c0 -250 1 -270 18 -270 9 0 34 -3 55 -6 l37 -7 1 144 c1
79 3 135 6 124 12 -55 78 -261 85 -266 5 -3 31 -6 59 -8 l50 -2 -3 265 c-2
145 -5 266 -8 269 -3 2 -26 7 -52 10 l-48 7 -1 -138 0 -137 -41 130 c-22 72
-43 133 -47 136 -3 4 -30 9 -58 13 l-53 7 0 -271z"/>
<path d="M7420 1316 c0 -117 3 -240 6 -273 l7 -60 55 -2 55 -2 -7 267 c-3 147
-8 269 -9 270 -1 0 -26 4 -54 7 l-53 6 0 -213z"/>
<path d="M5263 1472 c-102 -51 -102 -51 -123 -169 -13 -77 -4 -139 27 -181 33
-44 63 -57 101 -44 27 9 31 8 36 -11 6 -24 -1 -37 -12 -21 -8 12 -81 12 -100
0 -8 -5 -15 1 -20 15 l-9 23 -7 -25 c-6 -23 -7 -24 -21 -5 -8 11 -15 15 -15 8
0 -11 -18 -10 -55 4 -40 15 -5 -6 220 -133 323 -182 413 -230 390 -206 -11 11
-22 20 -25 20 -12 -3 -50 25 -50 36 0 8 3 8 9 -1 12 -20 16 -19 40 2 20 18 30
11 14 -10 -5 -5 0 0 11 11 10 11 23 19 27 17 5 -1 8 4 7 10 -2 7 2 12 7 11 6
-1 11 10 12 25 1 23 1 24 -7 7 -6 -15 -8 -12 -7 17 1 20 5 34 10 31 4 -2 5 -8
2 -13 -3 -5 -1 -11 5 -15 9 -6 15 8 11 29 -1 5 5 4 13 -4 19 -15 21 0 4 20
-11 12 -10 12 5 0 16 -12 18 -11 13 15 -3 15 -2 25 1 21 4 -4 8 -12 9 -19 1
-7 5 -21 9 -32 5 -14 4 -16 -3 -7 -7 11 -10 11 -16 -3 -3 -9 -10 -13 -16 -10
-5 3 -10 1 -10 -4 0 -6 5 -11 11 -11 5 0 8 -4 4 -9 -3 -5 -1 -13 5 -16 6 -4 9
-1 8 7 -2 7 3 12 10 10 8 -1 11 2 8 7 -4 5 -2 12 4 16 9 6 15 -9 10 -30 -1 -5
7 -2 18 8 10 9 21 15 24 12 2 -3 2 10 -1 28 -5 29 -6 30 -9 7 -2 -14 -8 -29
-13 -35 -6 -6 -7 3 -3 24 5 24 4 32 -4 27 -6 -4 -9 -14 -6 -24 5 -15 4 -15 -6
1 -9 13 -8 21 5 33 8 9 12 20 9 26 -4 7 -2 8 4 4 6 -4 9 -14 6 -24 -5 -14 -3
-14 10 2 8 10 13 22 11 26 -3 4 3 7 13 6 9 0 17 4 17 9 0 6 -4 9 -8 7 -5 -1
-6 2 -2 8 3 5 2 10 -2 10 -12 0 -15 48 -4 54 5 3 14 -1 20 -8 8 -10 9 -16 1
-21 -7 -4 -6 -13 2 -28 7 -12 13 -33 15 -47 1 -16 0 -20 -5 -10 -11 22 -30 22
-42 0 -7 -13 -7 -20 -1 -20 6 0 8 -6 5 -14 -3 -8 -1 -17 5 -21 7 -4 8 1 4 12
-6 16 -5 17 13 3 10 -8 16 -10 12 -6 -4 5 -3 15 4 23 9 11 14 11 32 -4 21 -18
21 -18 4 3 -10 11 -18 31 -18 43 0 12 -7 29 -15 38 -12 12 -13 18 -4 29 6 8 9
14 5 14 -4 0 0 12 7 28 8 15 12 38 10 52 -2 14 -4 33 -4 44 0 10 -1 17 -2 15
-1 -2 -11 -15 -22 -29 -18 -23 -18 -23 -1 -10 17 14 18 13 12 -7 -4 -12 -2
-24 3 -28 7 -4 6 -14 -1 -30 -6 -13 -15 -22 -20 -19 -5 3 -4 12 2 19 9 10 9
19 0 32 -9 15 -10 14 -4 -7 6 -22 5 -23 -9 -12 -9 7 -14 21 -12 31 2 10 -3 18
-11 18 -9 0 -11 -4 -4 -12 13 -16 0 -27 -16 -14 -10 8 -11 16 -3 33 9 16 9 18
0 10 -6 -6 -14 -21 -17 -35 -3 -13 -7 -31 -9 -39 -2 -8 -4 -17 -4 -20 -1 -3
-5 2 -11 10 -5 9 -5 19 2 27 6 8 8 16 5 20 -4 3 -1 13 6 22 10 14 10 14 -5 3
-10 -8 -14 -20 -11 -30 6 -15 5 -15 -10 -3 -17 13 -16 15 0 35 18 21 18 21 -3
3 -11 -9 -25 -14 -30 -10 -5 5 0 -2 11 -15 10 -13 20 -28 21 -35 1 -7 3 -16 5
-22 2 -5 0 -10 -6 -10 -5 0 -11 9 -13 20 -1 10 -12 29 -23 41 -12 13 -16 24
-11 28 10 6 10 31 0 41 -3 3 -5 -5 -4 -17 1 -16 -4 -22 -14 -20 -9 2 -3 -9 13
-26 22 -23 27 -35 22 -58 -4 -16 -7 -38 -6 -49 0 -16 -2 -17 -8 -5 -10 17 -9
50 2 66 3 6 -8 24 -26 40 l-32 29 28 -31 c17 -19 25 -34 18 -38 -5 -4 -7 -14
-4 -24 6 -15 5 -15 -10 -3 -12 10 -14 17 -7 26 7 8 4 17 -9 29 -14 13 -21 14
-27 5 -4 -7 -3 -10 3 -6 6 4 16 0 22 -7 9 -10 9 -16 1 -21 -8 -5 -6 -13 5 -25
13 -14 14 -23 6 -37 -6 -10 -11 -13 -11 -7 0 6 -17 10 -40 9 -24 -1 -45 4 -52
12 -9 11 -13 12 -20 1 -5 -8 -7 -2 -4 16 3 16 8 31 12 35 4 3 4 -2 1 -12 -5
-12 -3 -16 5 -11 7 4 8 3 4 -4 -4 -7 1 -10 14 -7 11 2 18 0 15 -5 -6 -10 14
-8 32 3 6 4 14 3 17 -2 4 -5 0 -11 -6 -14 -7 -3 -3 -4 9 -4 22 1 22 1 3 22
-15 16 -17 24 -8 33 7 7 8 12 4 12 -4 0 -16 -10 -27 -22 -10 -13 -18 -18 -19
-11 0 6 5 15 11 18 6 4 8 13 5 20 -3 8 1 19 9 25 13 11 15 34 2 46 -3 4 -5 -3
-2 -14 2 -11 -4 -26 -13 -34 -21 -17 -57 -17 -58 0 -1 6 -2 15 -3 19 0 3 -10
-2 -21 -12 -21 -19 -28 -7 -8 13 17 17 18 39 2 39 -9 0 -10 -4 -5 -11 6 -7 2
-20 -10 -35 -14 -17 -19 -19 -19 -8 0 9 5 19 10 22 13 8 4 24 -13 21 -25 -3
-35 -17 -30 -39 4 -21 4 -21 -12 3 l-16 25 7 -25 c6 -23 6 -24 -11 -10 -11 8
-16 10 -12 3 4 -6 3 -14 -3 -18 -7 -4 -7 -12 0 -26 8 -13 7 -25 0 -39 -13 -25
-16 -25 -16 -1 0 11 4 17 8 15 11 -7 10 8 -2 26 -8 13 -10 12 -11 -5 -1 -11
-1 -23 -1 -26 1 -4 -8 -15 -19 -25 -20 -18 -20 -18 -10 6 5 14 32 79 61 145
29 66 56 130 60 142 8 20 2 26 -62 63 -39 22 -72 39 -73 38 -2 -2 -15 -27 -30
-57 -26 -51 -26 -55 -10 -67 15 -11 16 -17 5 -43 -6 -16 -20 -37 -31 -47 -17
-16 -19 -15 -30 10 -17 36 10 149 55 234 19 34 31 62 27 61 -3 0 -48 -21 -98
-47z m256 -319 c-14 -16 -5 -42 14 -39 8 1 23 8 33 16 10 8 15 10 11 4 -9 -16
13 -31 41 -28 25 2 27 -4 8 -29 -13 -16 -14 -16 -29 5 l-15 23 -16 -35 c-9
-21 -15 -28 -16 -17 0 10 -4 16 -10 12 -5 -3 -8 -11 -6 -18 1 -7 1 -9 -1 -4
-3 4 -9 5 -13 2 -5 -3 -7 7 -4 22 4 22 3 25 -7 16 -10 -10 -16 -10 -28 0 -12
10 -14 9 -8 -5 3 -10 2 -20 -4 -23 -5 -4 -6 -11 -3 -17 4 -7 2 -8 -5 -4 -8 5
-9 12 -2 20 7 9 6 19 -5 34 -16 23 -16 24 19 26 14 1 22 8 23 21 3 31 3 32 19
32 11 0 12 -4 4 -14z m326 -60 c15 -27 15 -27 9 -3 -6 22 -5 23 10 11 15 -13
15 -15 0 -32 -9 -10 -14 -25 -11 -33 7 -17 -14 -38 -29 -28 -13 9 -11 38 2 35
5 -1 10 8 11 20 0 12 -1 16 -4 9 -3 -6 -9 -10 -14 -6 -5 3 -8 0 -7 -8 2 -7 -3
-12 -11 -10 -11 2 -12 0 -3 -11 10 -11 9 -17 -3 -27 -12 -10 -16 -9 -21 4 -4
11 3 27 21 46 15 15 27 31 26 34 -6 34 4 33 24 -1z m-348 -48 c0 -8 -4 -12 -9
-9 -5 3 -6 10 -3 15 9 13 12 11 12 -6z m266 -16 c-4 -15 -8 -17 -13 -8 -10 15
-1 41 10 34 5 -3 6 -14 3 -26z m128 -92 c-1 -12 -15 -9 -19 4 -3 6 1 10 8 8 6
-3 11 -8 11 -12z m-199 -119 c-8 -10 -18 -15 -22 -13 -4 3 -13 -2 -20 -10 -13
-16 -30 -11 -30 8 0 7 4 6 10 -3 10 -16 12 -13 14 19 0 11 5 23 9 28 5 4 7 4
5 -2 -1 -5 2 -11 7 -11 6 -1 9 2 7 8 -1 5 2 7 8 3 5 -3 10 2 11 12 0 16 1 16
9 -2 5 -13 3 -26 -8 -37z"/>
<path d="M5496 1111 c-4 -5 -15 -8 -26 -6 -12 2 -18 0 -15 -6 4 -5 10 -7 15
-4 5 3 12 1 15 -5 5 -8 11 -8 20 0 16 13 30 -3 19 -22 -4 -6 -3 -8 4 -4 6 3
10 15 9 26 -1 10 -3 17 -6 15 -2 -3 -10 0 -17 6 -8 6 -14 7 -18 0z"/>
<path d="M5554 1105 c-3 -8 -4 -20 -1 -27 3 -7 6 -3 6 10 1 15 5 21 13 16 7
-4 8 -3 4 4 -10 16 -15 15 -22 -3z"/>
<path d="M5679 823 c-13 -16 -12 -17 4 -4 16 13 21 21 13 21 -2 0 -10 -8 -17
-17z"/>
<path d="M7606 1259 c3 -145 7 -270 10 -276 2 -8 22 -13 55 -13 l51 0 -4 143
-3 143 48 -148 48 -148 56 0 56 0 -7 267 c-4 147 -8 268 -9 269 -1 1 -26 4
-56 6 l-54 5 5 -141 5 -141 -45 143 -46 142 -35 0 c-20 0 -46 3 -59 6 l-23 6
7 -263z"/>
<path d="M6049 1489 c0 -2 -3 -13 -5 -24 -17 -70 -27 -130 -27 -158 1 -34 -6
-29 -13 9 -2 16 -7 35 -9 42 -3 7 0 10 5 7 5 -3 3 14 -4 39 -8 25 -11 48 -7
52 3 4 0 4 -7 0 -7 -5 -11 -14 -8 -22 3 -7 1 -16 -5 -19 -5 -4 -7 -10 -4 -15
3 -5 1 -11 -4 -14 -5 -3 -7 10 -5 29 1 19 -1 35 -7 35 -8 0 -14 -31 -10 -53 1
-5 -2 -6 -7 -3 -5 3 -7 20 -6 38 l3 33 -8 -30 c-4 -16 -6 -38 -5 -47 7 -44 6
-167 -1 -178 -5 -9 -4 -11 3 -6 23 14 20 -137 -3 -173 -3 -5 -1 -12 5 -16 5
-3 10 -19 10 -34 0 -16 7 -35 17 -42 15 -13 15 -12 2 8 -11 18 -11 25 -1 35
11 11 12 10 7 -3 -3 -9 2 -22 12 -30 10 -7 15 -10 11 -5 -4 5 -3 17 3 28 9 16
13 17 27 6 15 -11 15 -11 5 3 -7 9 -25 15 -40 14 -16 -1 -33 6 -39 14 -13 17
-7 44 7 35 5 -3 6 -11 3 -17 -4 -7 -3 -8 1 -4 12 10 15 37 5 34 -8 -2 -10 3
-10 26 0 9 2 9 9 -1 5 -9 25 -12 62 -10 30 2 52 5 49 8 -3 3 3 19 14 34 10 16
13 25 7 22 -6 -4 -11 0 -11 9 0 10 5 13 13 9 9 -6 9 -4 -1 8 -10 13 -10 17 4
22 11 4 13 10 7 19 -5 6 -9 67 -8 135 1 106 -1 125 -17 139 -10 9 -18 14 -19
12z m27 -36 c-10 -11 -19 -7 -22 10 -2 15 0 16 12 6 8 -6 12 -14 10 -16z
m-103 -478 c-3 -9 -8 -14 -10 -11 -3 3 -2 9 2 15 9 16 15 13 8 -4z"/>
<path d="M8046 1460 c-54 -48 -70 -109 -63 -244 6 -135 20 -178 73 -233 33
-35 47 -43 77 -43 25 0 40 6 51 21 l14 21 14 -21 c8 -13 23 -21 41 -21 l29 0
-7 143 c-4 78 -8 143 -9 143 0 1 -31 5 -68 9 l-68 7 0 -51 c0 -45 3 -51 21
-51 18 0 20 -5 17 -42 -4 -56 -30 -63 -54 -16 -27 50 -31 202 -7 248 21 42 66
52 108 24 14 -9 28 -15 30 -13 2 3 1 31 -2 62 -5 51 -10 60 -34 72 -15 8 -51
15 -78 15 -42 0 -56 -5 -85 -30z"/>
<path d="M8806 1443 c-1 -2 24 -124 57 -272 l60 -269 53 -4 54 -3 2 205 3 205
27 -204 c15 -112 28 -204 30 -206 2 -1 27 -5 56 -7 l52 -5 0 267 0 268 -27 5
c-16 3 -32 2 -37 -3 -4 -4 -7 -93 -5 -197 4 -200 2 -196 -32 47 -11 85 -21
156 -22 156 -1 1 -26 4 -54 6 l-53 5 -1 -191 -1 -191 -14 100 c-7 55 -19 141
-26 190 l-13 90 -53 5 c-29 3 -54 4 -56 3z"/>
<path d="M4963 1327 c-46 -23 -83 -44 -83 -47 0 -7 110 -64 114 -59 4 6 66
141 66 145 0 8 -18 1 -97 -39z"/>
<path d="M5306 1248 c3 -5 10 -6 15 -3 13 9 11 12 -6 12 -8 0 -12 -4 -9 -9z"/>
<path d="M6095 1220 c3 -5 8 -10 11 -10 2 0 4 5 4 10 0 6 -5 10 -11 10 -5 0
-7 -4 -4 -10z"/>
<path d="M4723 1208 c-13 -6 -23 -19 -23 -30 0 -15 8 -18 55 -18 48 0 55 2 55
20 0 19 -28 41 -52 39 -7 0 -23 -5 -35 -11z"/>
<path d="M5884 1203 c2 -10 -2 -25 -8 -33 -9 -13 -9 -13 6 -2 16 12 18 35 6
48 -4 3 -5 -2 -4 -13z"/>
<path d="M5479 1183 c-13 -16 -12 -17 4 -4 16 13 21 21 13 21 -2 0 -10 -8 -17
-17z"/>
<path d="M5695 1191 c-3 -5 -2 -12 3 -15 5 -3 9 1 9 9 0 17 -3 19 -12 6z"/>
<path d="M5623 1183 c4 -3 1 -13 -6 -22 -11 -14 -10 -14 5 -2 16 12 16 31 1
31 -4 0 -3 -3 0 -7z"/>
<path d="M5970 1051 c0 -6 4 -13 10 -16 6 -3 7 1 4 9 -7 18 -14 21 -14 7z"/>
<path d="M5990 1055 c0 -2 6 -8 13 -14 10 -8 14 -7 14 2 0 8 -6 14 -14 14 -7
0 -13 -1 -13 -2z"/>
<path d="M6627 938 c-190 -296 -299 -469 -296 -472 8 -6 102 -56 105 -56 2 0
13 19 25 43 35 68 36 69 80 46 43 -21 42 -15 17 -113 -5 -21 -8 -39 -6 -41 2
-2 27 -17 56 -34 36 -21 54 -27 57 -18 8 28 117 668 114 671 -2 1 -25 15 -51
30 l-48 27 -53 -83z m12 -215 c-10 -43 -21 -88 -24 -101 -5 -20 -8 -21 -28
-11 -12 7 -23 13 -25 14 -3 3 88 175 93 175 1 0 -6 -35 -16 -77z"/>
<path d="M1520 893 c-101 -17 -191 -77 -231 -155 -81 -159 -23 -439 138 -666
l44 -62 190 0 c161 0 189 2 189 15 0 19 19 19 44 0 11 -8 28 -15 38 -15 22 0
89 32 86 41 -2 3 -50 112 -106 242 l-104 235 -96 -45 c-54 -25 -105 -48 -114
-50 -25 -7 -23 -20 14 -102 32 -74 32 -74 84 -54 13 5 54 -85 54 -119 0 -58
-62 -65 -114 -13 -67 66 -142 220 -166 339 -32 157 50 244 200 211 26 -6 32
-4 27 6 -65 161 -81 189 -103 189 -12 0 -28 2 -36 4 -7 2 -24 1 -38 -1z"/>
<path d="M5742 846 c1 -14 5 -23 9 -20 7 4 0 44 -7 44 -2 0 -3 -11 -2 -24z"/>
<path d="M6915 834 c-8 -20 -15 -38 -15 -40 0 -5 -150 -408 -179 -481 l-20
-52 44 -25 c24 -14 48 -26 53 -26 6 0 30 54 54 120 23 66 47 118 52 117 30
-10 30 -39 2 -149 -16 -62 -30 -117 -32 -123 -4 -11 101 -73 109 -65 8 10 47
226 47 260 0 19 -6 47 -14 62 -14 26 -13 26 20 32 47 9 91 57 110 122 29 102
2 156 -116 226 -47 28 -88 53 -92 55 -4 2 -14 -13 -23 -33z m104 -165 c17 -16
21 -28 16 -48 -14 -59 -48 -85 -83 -63 -10 7 -8 22 10 70 12 34 25 62 28 62 3
0 16 -10 29 -21z"/>
<path d="M7215 603 c-14 -43 -62 -176 -106 -297 -43 -120 -79 -221 -79 -225 0
-10 60 -41 80 -41 11 0 22 12 30 33 6 17 32 88 56 157 24 69 44 118 44 110 0
-8 -7 -73 -15 -145 -8 -72 -15 -136 -15 -142 0 -9 20 -13 68 -13 l67 0 80 232
c44 128 81 238 83 244 4 14 -80 67 -89 56 -4 -4 -30 -74 -58 -157 -28 -82 -51
-143 -51 -135 0 8 7 76 15 150 22 201 23 195 -28 225 -24 14 -46 25 -49 25 -3
0 -18 -35 -33 -77z"/>
<path d="M915 625 c-38 -19 -74 -36 -79 -38 -10 -3 118 -313 181 -441 19 -37
32 -70 30 -72 -2 -2 -20 16 -39 41 -67 86 -342 395 -348 393 -74 -30 -190 -83
-190 -88 0 -3 38 -95 84 -205 l84 -200 111 -3 c61 -1 111 0 111 3 0 3 -9 24
-20 45 -27 53 -13 50 29 -5 l33 -45 195 0 c162 0 194 2 190 14 -3 7 -65 154
-139 325 -93 218 -137 311 -148 310 -8 0 -46 -16 -85 -34z"/>
<path d="M7569 462 c-6 -15 -37 -103 -69 -197 -32 -93 -63 -182 -69 -197 l-11
-28 60 0 c33 0 60 1 60 3 0 2 29 88 65 192 36 103 65 191 65 194 0 3 -20 18
-45 33 l-46 28 -10 -28z"/>
<path d="M7673 215 l-59 -174 96 0 96 0 2 42 c2 23 7 89 12 146 5 57 7 107 4
112 -5 9 -78 49 -88 49 -2 0 -30 -79 -63 -175z"/>
<path d="M221 314 c-69 -33 -92 -48 -87 -59 3 -9 27 -67 53 -130 l48 -115 118
0 c64 0 117 2 117 5 0 13 -144 345 -149 344 -3 0 -48 -21 -100 -45z"/>
<path d="M7897 283 c-6 -9 -77 -230 -77 -238 0 -3 24 -5 53 -5 l52 0 29 93
c16 50 30 97 33 104 2 7 -14 21 -36 32 -45 23 -48 24 -54 14z"/>
<path d="M8094 146 c-28 -13 -94 -81 -94 -98 0 -5 56 -8 125 -8 108 0 125 2
125 16 0 27 -41 75 -76 90 -40 17 -41 17 -80 0z"/>
<path d="M10 73 c0 -61 1 -63 26 -63 28 0 28 8 -7 84 l-19 41 0 -62z"/>
</g>
</svg>
